<svg xmlns="http://www.w3.org/2000/svg" xmlns:xlink="http://www.w3.org/1999/xlink" viewBox="0 0 199.13 199.78"><defs><style>.cls-1{fill:none;}.cls-2{clip-path:url(#clip-path);}.cls-3{fill:#a80000;}.cls-4{fill:#a30000;}.cls-5{fill:#9e0000;}.cls-6{fill:#900;}.cls-7{fill:#940000;}.cls-8{fill:#8f0000;}.cls-9{fill:#8a0000;}.cls-10{fill:#850000;}.cls-11{fill:#ad0000;}.cls-12{fill:#b30000;}.cls-13{fill:#b80000;}.cls-14{fill:#bd0000;}.cls-15{fill:#c20000;}.cls-16{fill:#c70000;}.cls-17{fill:#c00;}.cls-18{fill:#d10000;}.cls-19{fill:#d60000;}.cls-20{fill:#db0000;}.cls-21{fill:#e00000;}.cls-22{fill:#e60000;}.cls-23{fill:#eb0000;}.cls-24{fill:#f00000;}.cls-25{fill:#f50000;}.cls-26{fill:#fa0000;}.cls-27{fill:red;}.cls-28{fill:#ff1f1f;}.cls-29{fill:#ff2b2b;}.cls-30{fill:#ff3535;}.cls-31{fill:#ff3d3d;}.cls-32{fill:#f44;}.cls-33{fill:#ff4b4b;}.cls-34{fill:#ff5151;}.cls-35{fill:#ff5757;}.cls-36{fill:#ff5c5c;}.cls-37{fill:#ff6161;}.cls-38{fill:#ff6565;}.cls-39{fill:#ff6a6a;}.cls-40{fill:#ff6e6e;}.cls-41{fill:#ff7272;}.cls-42{fill:#f77;}.cls-43{fill:#ff7a7a;}.cls-44{fill:#ff7e7e;}.cls-45{fill:#ff8282;}.cls-46{fill:#ff8585;}.cls-47{clip-path:url(#clip-path-2);}</style><clipPath id="clip-path" transform="translate(-0.06 -0.01)"><path class="cls-1" d="M.07,99.73a70.61,70.61,0,0,1,.41-8.84c.31-2.39.62-5.58,1-8,.45-2.57,1.18-6,1.84-8.49.6-2.27,1.51-5.27,2.29-7.48.86-2.45,2.23-5.63,3.2-8a70.07,70.07,0,0,1,4-7.93c2.29-3.89,5.67-8.89,8.34-12.53a67.75,67.75,0,0,1,6-7c1.54-1.54,3.54-3.66,5.16-5.11,2.27-2,5.4-4.62,7.8-6.49a103,103,0,0,1,11.22-7.29,84.13,84.13,0,0,1,10.34-5c2.17-.85,5.08-2,7.29-2.68s5.1-1.51,7.3-2.07,4.85-1.08,7-1.45S87.12.79,89.11.56A101.41,101.41,0,0,1,114,1c2.38.34,4.91.84,5.92,1.06,2,.43,4.69,1.11,6.68,1.64,1.49.4,3.47,1,4.93,1.54,2.06.73,4.79,1.77,6.8,2.61,3.15,1.32,7.18,3.45,10.2,5.05,24.39,13.93,40.48,41.35,40.42,75-.1,52.9-40.14,101.17-89.52,108.07,49.38-6.9,89.42-55.17,89.52-108.07.06-33.63-16-61-40.45-74.92q4.09,2.31,7.94,5c1.65,1.23,3.9,2.82,5.49,4.13,2,1.64,4.67,3.84,6.48,5.69,1.53,1.58,3.64,3.63,5.11,5.27,1.7,1.92,3.88,4.54,5.43,6.58a99.41,99.41,0,0,1,15,28.32,127.7,127.7,0,0,1,3.83,15.27c.49,2.58.85,6.06,1.06,8.68.2,2.43.24,5.69.32,8.14a66.84,66.84,0,0,1-.55,10.3c-.33,2.38-.7,5.56-1.15,7.92-.48,2.55-1.26,5.94-2,8.45-.62,2.26-1.57,5.23-2.38,7.43-.9,2.43-2.31,5.6-3.32,8a69.24,69.24,0,0,1-3.5,6.8c-1.31,2.29-3.25,5.24-4.67,7.47a66.92,66.92,0,0,1-5.69,7.5,117.24,117.24,0,0,1-10.1,10.45c-2.32,2-5.53,4.59-8,6.44-1.61,1.22-3.86,2.7-5.57,3.76s-4.22,2.58-6.11,3.54c-3,1.52-7.07,3.41-10.17,4.71A93.26,93.26,0,0,1,122.75,197a98.18,98.18,0,0,1-19.68,2.72c-.64,0-1.5,0-2.15.06H96.66c-3.29-.1-5.73-.32-6.62-.42-3.86-.4-5.72-.71-7.69-1s-2.73-.6-6.33-1.46-8.27-2.42-8.31-2.43c-2.06-.75-4.79-1.77-6.81-2.61-1.55-.65-3.59-1.59-5.1-2.35-2.54-1.28-5.91-3.06-8.3-4.6-3.41-2.2-7.81-5.34-11-7.86-2.16-1.7-4.88-4.24-6.88-6.15a79.06,79.06,0,0,1-5.83-6.3c-2.82-3.51-6.35-8.37-8.84-12.12a66,66,0,0,1-4.2-7.48c-1.08-2.29-2.63-5.32-3.49-7.71a151.7,151.7,0,0,1-4.64-14.93A132.85,132.85,0,0,1,.39,107.89C.11,105.44.11,102.17.07,99.73Z"/></clipPath><clipPath id="clip-path-2" transform="translate(-0.06 -0.01)"><path class="cls-1" d="M50.71,186.82c-1.73-1-4-2.35-5.68-3.48-2.61-1.8-6-4.3-8.51-6.28a122.39,122.39,0,0,1-10.5-10A67.76,67.76,0,0,1,20,159.72c-1.51-2.18-3.56-5.05-5-7.29-1.22-1.94-2.7-4.61-3.77-6.64C10,143.5,8.55,140.35,7.55,138c-.9-2.15-1.88-5.11-2.68-7.29a64.57,64.57,0,0,1-2.3-8.33A145.1,145.1,0,0,1,.26,106.53a87.38,87.38,0,0,1,.13-15c.31-2.6.55-6.11,1.09-8.67.5-2.33,1.06-5.45,1.65-7.74A83.57,83.57,0,0,1,5.62,67c.84-2.16,1.89-5.08,2.83-7.2,1-2.35,2.55-5.44,3.78-7.69,1.09-2,2.64-4.61,3.88-6.5,1.44-2.19,3.4-5.08,5.06-7.1A132.36,132.36,0,0,1,31,27.63c1.9-1.8,4.54-4.1,6.57-5.75,1.59-1.3,3.77-2.94,5.47-4.09,2.27-1.53,5.36-3.47,7.72-4.86,1.5-.88,3.57-2,5.15-2.72a92.51,92.51,0,0,1,9.44-4.06c2.16-.83,5.12-1.75,7.35-2.38A99.28,99.28,0,0,1,91.55.34a97.53,97.53,0,0,1,19.92.39c4.64.56,8.11,1.32,8.14,1.33,2,.45,4.68,1.09,6.66,1.62,1.33.36,3.07.91,4.38,1.34a101.13,101.13,0,0,1,10.11,4c2.38,1.06,5.44,2.71,7.73,4-14-8-30.72-11.46-48.71-9.13,18-2.33,34.71,1.18,48.71,9.13h0A133.21,133.21,0,0,1,159.8,20.5c2.26,1.79,5.23,4.26,7.37,6.2,1.63,1.48,3.71,3.55,5.19,5.18,1.83,2,4.2,4.79,5.89,6.93,1.37,1.72,3.14,4.18,4.37,6.08,1.44,2.18,3.23,5.19,4.49,7.49,1.11,2,2.4,4.8,3.39,6.88a84.09,84.09,0,0,1,3.16,8c.78,2.22,1.59,5.24,2.26,7.49a57.4,57.4,0,0,1,1.81,8.48c.3,2.39.81,5.56,1,8,.22,2.65.37,6.2.38,8.86a122.23,122.23,0,0,1-1.33,16.11,72.59,72.59,0,0,1-2.12,9.81c-.68,2.24-1.54,5.25-2.33,7.45a81.46,81.46,0,0,1-3.19,7.87c-1,2.06-2.32,4.84-3.44,6.84-1.24,2.22-3,5.13-4.41,7.24a99.21,99.21,0,0,1-10,12.57,97.41,97.41,0,0,1-11.8,10.81c-1.6,1.24-3.77,2.85-5.47,4-2.3,1.51-5.45,3.41-7.83,4.78a101.71,101.71,0,0,1-11.28,5.31c-2.14.82-5,1.86-7.22,2.53s-5,1.42-7.15,1.92a98.46,98.46,0,0,1-53-2.51,99.86,99.86,0,0,1-10.12-4C56.05,189.72,53,188.13,50.71,186.82Z"/></clipPath></defs><title>ball_red</title><g id="Layer_2" data-name="Layer 2"><g id="Layer_1-2" data-name="Layer 1"><g class="cls-2"><path class="cls-3" d="M.07,99.73a101.71,101.71,0,0,0,4.55,30.16c4.59,14.16,9.64,21.58,14.53,28.76,3.57,5.25,17.34,23.26,44.32,34.25,30.25,12.32,75.22,9.8,107.51-23.59,12.73-13.15,33.13-41.74,26.84-85.41-2-13.81-10.78-48.38-49.37-71,24.46,13.93,40.55,41.35,40.49,75-.1,52.9-40.14,101.17-89.52,108.07,49.38-6.9,89.42-55.17,89.52-108.07.06-33.63-16-61-40.45-74.92C141.23,9.12,124.24.11,100.36,0a98.53,98.53,0,0,0-49,12.59C34.12,22.67,23,33.79,12.85,51,4.85,64.62-.15,83.75.07,99.73" transform="translate(-0.06 -0.01)"/><path class="cls-3" d="M188.94,87.89c-.1,52.9-40.14,101.17-89.52,108.07h-.69C14.09,200.64-19.69,105.6,18,62.43c41.74-47.82,130-7.86,134.88,61.08,3.77,53-36.33,66.63-53.46,72.44,49.38-6.9,89.42-55.17,89.52-108.07.06-33.63-16-61-40.45-74.92l-5.1-2.7c-2.3-1.06-5.37-2.46-7.71-3.42L131.49,5.3c-1.48-.47-3.44-1.11-4.93-1.54l-3.39-.87c-1.06-.25-2.48-.59-3.56-.81l-2.82-.54c-.84-.14-2-.34-2.83-.46L111.51.75c-.73-.08-1.7-.2-2.43-.27L106.84.29,104.62.13,102.49.05H98.23c-.65,0-1.51,0-2.15.06l-2.24.1L91.55.38,89.08.61c-.78.1-1.82.21-2.6.32l-3.25.49a103.63,103.63,0,0,0-21.54,6.2L56.51,9.89A100,100,0,0,0,45.69,16l-5.56,3.9c-2.37,1.91-5.53,4.46-7.8,6.49l-5.16,5.11c-1.81,2.07-4.26,4.81-6,7l-4.39,6.08c-1.38,2.25-3.27,5.21-4.55,7.52l-3.39,6.8c-1,2.4-2.33,5.58-3.2,8L3.35,74.37C2.79,76.91,2,80.29,1.51,82.86l-1,8C.38,93.52.12,97.06.1,99.72l.29,8.17c.52,4.37,1.37,10.17,2.21,14.48l2,7.52c.87,2.42,2,5.66,2.92,8l3.2,7c1.25,2.25,2.86,5.28,4.2,7.48l4.21,6.25c1.62,2.06,3.75,4.85,5.46,6.84l5,5.43c2,1.88,4.74,4.41,6.87,6.2l5.39,4.14c2.61,1.73,6.1,4,8.8,5.62l5.09,2.7c2.3,1.06,5.37,2.46,7.71,3.42l4.2,1.54c1.47.46,3.44,1.11,4.93,1.54l3.38.89c1.07.25,2.49.59,3.56.81l2.82.54,2.84.46,2.45.33c.73.08,1.7.2,2.43.27l2.24.19,2.22.14,2.13.08h4.26c.65,0,1.51,0,2.15-.06l2.24-.1,2.29-.17,2.48-.23c.77-.1,1.81-.21,2.59-.32l3.22-.49a101.35,101.35,0,0,0,20-5.58l5.09-2.18a96.66,96.66,0,0,0,11.19-6.07l5.57-3.76c2.43-1.89,5.66-4.43,8-6.44l5.21-5c1.86-2.06,4.36-4.78,6.12-6.93l4.46-6c1.42-2.24,3.35-5.18,4.67-7.47l3.5-6.8c1-2.39,2.42-5.56,3.32-8l2.38-7.43c.6-2.53,1.48-5.9,2-8.45l1.15-7.92c.2-3.09.51-7.21.55-10.3l-.31-8.17c-.31-2.61-.64-6.09-1.06-8.68l-1.62-7.75c-.73-2.47-1.62-5.79-2.45-8.22L190.87,60c-1.11-2.31-2.53-5.42-3.74-7.68l-3.87-6.54c-1.49-2.13-3.43-5-5-7.08L173.52,33c-1.89-1.94-4.37-4.57-6.34-6.43l-5.25-4.53c-7-5.25-7.71-5.8-13.43-9.15,24.41,13.9,40.5,41.32,40.44,75" transform="translate(-0.06 -0.01)"/><path class="cls-4" d="M188.94,87.89c-.08,44-27.84,84.87-65.63,101.29L119,191.45C53,219.32-20.21,144,7.07,76.27c21.84-54.19,112-52,142.32,18.57,16,37.28,5,77-26.08,94.34,37.79-16.43,65.55-57.29,65.63-101.29.06-33.63-16-61-40.45-74.92l-5.1-2.7c-2.3-1.06-5.37-2.46-7.71-3.42l-4.19-1.54c-1.48-.47-3.44-1.11-4.93-1.54l-3.39-.88c-1.06-.25-2.48-.59-3.56-.81l-2.82-.54c-.84-.14-2-.34-2.83-.46L111.51.75c-.73-.08-1.7-.2-2.43-.27L106.84.29,104.62.13,102.49.05H98.23c-.65,0-1.51,0-2.15.06l-2.24.1L91.55.38,89.08.61c-.78.1-1.82.21-2.6.32l-3.25.49a103.63,103.63,0,0,0-21.54,6.2L56.51,9.89A100,100,0,0,0,45.69,16l-5.56,3.9c-2.37,1.91-5.53,4.46-7.8,6.49l-5.16,5.11c-1.81,2.07-4.26,4.81-6,7l-4.39,6.08c-1.38,2.25-3.27,5.21-4.55,7.52l-3.39,6.8c-1,2.4-2.33,5.58-3.2,8L3.35,74.37C2.79,76.91,2,80.29,1.51,82.86l-1,8C.38,93.52.12,97.06.1,99.72l.29,8.17c.52,4.37,1.37,10.17,2.21,14.48l2,7.52c.87,2.42,2,5.66,2.92,8l3.2,7c1.25,2.25,2.86,5.28,4.2,7.48l4.21,6.25c1.62,2.06,3.75,4.85,5.46,6.84l5,5.43c2,1.88,4.74,4.41,6.87,6.2l5.39,4.14c2.61,1.73,6.1,4,8.8,5.62l5.09,2.7c2.3,1.06,5.37,2.46,7.71,3.42l4.2,1.54c1.47.46,3.44,1.11,4.93,1.54l3.38.89c1.07.25,2.49.59,3.56.81l2.82.54,2.84.46,2.45.33c.73.08,1.7.2,2.43.27l2.24.19,2.22.14,2.13.08h4.26c.65,0,1.51,0,2.15-.06l2.24-.1,2.29-.17,2.48-.23c.77-.1,1.81-.21,2.59-.32l3.22-.49a101.35,101.35,0,0,0,20-5.58l5.09-2.18a96.66,96.66,0,0,0,11.19-6.07l5.57-3.76c2.43-1.89,5.66-4.43,8-6.44l5.21-5c1.86-2.06,4.36-4.78,6.12-6.93l4.46-6c1.42-2.24,3.35-5.18,4.67-7.47l3.5-6.8c1-2.39,2.42-5.56,3.32-8l2.38-7.43c.6-2.53,1.48-5.9,2-8.45l1.15-7.92c.2-3.09.51-7.21.55-10.3l-.31-8.17c-.31-2.61-.64-6.09-1.06-8.68l-1.62-7.75c-.73-2.47-1.62-5.79-2.45-8.22L190.87,60c-1.11-2.31-2.53-5.42-3.74-7.68l-3.87-6.54c-1.49-2.13-3.43-5-5-7.08L173.52,33c-1.89-1.94-4.37-4.57-6.34-6.43l-5.25-4.53c-7-5.25-7.71-5.8-13.43-9.15,24.41,13.9,40.5,41.32,40.44,75" transform="translate(-0.06 -0.01)"/><path class="cls-5" d="M4.19,128.34c-19.41-69.4,44.2-117.45,108-81.62,46.72,26.22,67.53,96.23,25.62,134.64,30.16-19.55,51-55.31,51.1-93.48.06-33.63-16-61-40.45-74.92l-5.1-2.7c-2.3-1.06-5.37-2.46-7.71-3.42L131.49,5.3c-1.48-.47-3.44-1.11-4.93-1.54l-3.39-.87c-1.06-.25-2.48-.59-3.56-.81l-2.82-.54c-.84-.14-2-.34-2.83-.46L111.51.75c-.73-.08-1.7-.2-2.43-.27L106.84.29,104.62.13,102.49.05H98.23c-.65,0-1.51,0-2.15.06l-2.24.1L91.55.38,89.08.61c-.78.1-1.82.21-2.6.32l-3.25.49a103.63,103.63,0,0,0-21.54,6.2L56.51,9.89A100,100,0,0,0,45.69,16l-5.56,3.9c-2.37,1.91-5.53,4.46-7.8,6.49l-5.16,5.11c-1.81,2.07-4.26,4.81-6,7l-4.39,6.08c-1.38,2.25-3.27,5.21-4.55,7.52l-3.39,6.8c-1,2.4-2.33,5.58-3.2,8L3.35,74.37C2.79,76.91,2,80.29,1.51,82.86l-1,8C.38,93.52.12,97.06.1,99.72l.29,8.17c.52,4.37,1.37,10.17,2.21,14.48l2,7.52,2.11,6-2.44-7.12a2,2,0,0,0-.14-.48" transform="translate(-0.06 -0.01)"/><path class="cls-5" d="M188.94,87.89c-.07,38.17-20.94,73.93-51.1,93.48l-4.05,3.47c-17.94,12.52-47.54,22.67-86.61-.11,2.55,1.52,6,3.42,8.62,4.8,2.3,1.06,5.37,2.46,7.71,3.42l4.2,1.54c1.47.46,3.44,1.11,4.93,1.54l3.38.89c1.07.25,2.49.59,3.56.81l2.82.54,2.84.46,2.45.33c.73.08,1.7.2,2.43.27l2.24.19,2.22.14,2.13.08H101c.65,0,1.51,0,2.15-.06l2.24-.1,2.29-.17,2.48-.23c.77-.1,1.81-.21,2.59-.32l3.22-.49a101.35,101.35,0,0,0,20-5.58l5.09-2.18a96.66,96.66,0,0,0,11.19-6.07l5.57-3.76c2.43-1.89,5.66-4.43,8-6.44l5.21-5c1.86-2.06,4.36-4.78,6.12-6.93l4.46-6c1.42-2.24,3.35-5.18,4.67-7.47l3.5-6.8c1-2.39,2.42-5.56,3.32-8l2.38-7.43c.6-2.53,1.48-5.9,2-8.45l1.15-7.92c.2-3.09.51-7.21.55-10.3l-.34-8.15c-.31-2.61-.64-6.09-1.06-8.68l-1.62-7.75c-.73-2.47-1.62-5.79-2.45-8.22L190.87,60c-1.11-2.31-2.53-5.42-3.74-7.68l-3.87-6.54c-1.49-2.13-3.43-5-5-7.08L173.52,33c-1.89-1.94-4.37-4.57-6.34-6.43l-5.25-4.53c-7-5.25-7.71-5.8-13.43-9.15,24.41,13.9,40.5,41.32,40.44,75" transform="translate(-0.06 -0.01)"/><path class="cls-6" d="M1.29,115.51C-8.15,35.81,72.84,7.44,127.94,52.61c28.27,23.18,53.46,75.91,20.91,120.55,24.11-20.47,40-52,40.09-85.28.06-33.63-16-61-40.45-74.92l-5.1-2.7c-2.3-1.06-5.37-2.46-7.71-3.42L131.49,5.3c-1.48-.47-3.44-1.11-4.93-1.54l-3.39-.87c-1.06-.25-2.48-.59-3.56-.81l-2.82-.54c-.84-.14-2-.34-2.83-.46L111.51.75c-.73-.08-1.7-.2-2.43-.27L106.84.29,104.62.13,102.49.05H98.23c-.65,0-1.51,0-2.15.06l-2.24.1L91.55.38,89.08.61c-.78.1-1.82.21-2.6.32l-3.25.49a103.63,103.63,0,0,0-21.54,6.2L56.51,9.89A100,100,0,0,0,45.69,16l-5.56,3.9c-2.37,1.91-5.53,4.46-7.8,6.49l-5.16,5.11c-1.81,2.07-4.26,4.81-6,7l-4.39,6.08c-1.38,2.25-3.27,5.21-4.55,7.52l-3.39,6.8c-1,2.4-2.33,5.58-3.2,8L3.35,74.37C2.79,76.91,2,80.29,1.51,82.86l-1,8C.38,93.52.12,97.06.1,99.72l.29,8.17c.32,2.75.69,6.42,1.14,9.15l-.24-1.51" transform="translate(-0.06 -0.01)"/><path class="cls-6" d="M188.94,87.89c-.06,33.32-16,64.81-40.09,85.28l-1.47,1.94c-29,32.78-66.45,24.08-81.23,18.78l4.15,1.39,2.34.7,3.38.89c1.07.25,2.49.59,3.56.81l2.82.54,2.84.46,2.45.33c.73.08,1.7.2,2.43.27l2.24.19,2.22.14,2.13.08H101c.65,0,1.51,0,2.15-.06l2.24-.1,2.29-.17,2.48-.23c.77-.1,1.81-.21,2.59-.32l3.22-.49a101.35,101.35,0,0,0,20-5.58l5.09-2.18a96.66,96.66,0,0,0,11.19-6.07l5.57-3.76c2.43-1.89,5.66-4.43,8-6.44l5.21-5c1.86-2.06,4.36-4.78,6.12-6.93l4.46-6c1.42-2.24,3.35-5.18,4.67-7.47l3.5-6.8c1-2.39,2.42-5.56,3.32-8l2.38-7.43c.6-2.53,1.48-5.9,2-8.45l1.15-7.92c.2-3.09.51-7.21.55-10.3l-.34-8.1c-.31-2.61-.64-6.09-1.06-8.68l-1.62-7.75c-.73-2.47-1.62-5.79-2.45-8.22L190.87,60c-1.11-2.31-2.53-5.42-3.74-7.68l-3.87-6.54c-1.49-2.13-3.43-5-5-7.08L173.52,33c-1.89-1.94-4.37-4.57-6.34-6.43l-5.25-4.53c-7-5.25-7.71-5.8-13.43-9.15,24.41,13.9,40.5,41.32,40.44,75" transform="translate(-0.06 -0.01)"/><path class="cls-7" d="M.07,99.65c4-85,95.73-89.89,140.38-41.24,28.77,31.34,35.89,73.89,17.71,105.87,18.82-20.13,30.73-47.58,30.78-76.4.06-33.63-16-61-40.45-74.92l-5.1-2.7c-2.3-1.06-5.37-2.46-7.71-3.42L131.49,5.3c-1.48-.47-3.44-1.11-4.93-1.54l-3.39-.87c-1.06-.25-2.48-.59-3.56-.81l-2.82-.54c-.84-.14-2-.34-2.83-.46L111.51.75c-.73-.08-1.7-.2-2.43-.27L106.84.29,104.62.13,102.49.05H98.23c-.65,0-1.51,0-2.15.06l-2.24.1L91.55.38,89.08.61c-.78.1-1.82.21-2.6.32l-3.25.49a103.63,103.63,0,0,0-21.54,6.2L56.51,9.89A100,100,0,0,0,45.69,16l-5.56,3.9c-2.37,1.91-5.53,4.46-7.8,6.49l-5.16,5.11c-1.81,2.07-4.26,4.81-6,7l-4.39,6.08c-1.38,2.25-3.27,5.21-4.55,7.52l-3.39,6.8c-1,2.4-2.33,5.58-3.2,8L3.35,74.37C2.79,76.91,2,80.29,1.51,82.86l-1,8C.38,93.52.12,97.06.1,99.72v-.08" transform="translate(-0.06 -0.01)"/><path class="cls-7" d="M188.94,87.89c0,28.82-12,56.27-30.78,76.4-.86,1.5-2,3.51-2.88,5-22.57,30.7-52.44,32.6-73.52,28.86l2.76.46.72.11,2.45.33c.73.08,1.7.2,2.43.27l2.24.19,2.22.14,2.13.08H101c.65,0,1.51,0,2.15-.06l2.24-.1,2.29-.17,2.48-.23c.77-.1,1.81-.21,2.59-.32l3.22-.49a101.35,101.35,0,0,0,20-5.58L141,190.6a96.66,96.66,0,0,0,11.19-6.07l5.57-3.76c2.43-1.89,5.66-4.43,8-6.44l5.21-5c1.86-2.06,4.36-4.78,6.12-6.93l4.46-6c1.42-2.24,3.35-5.18,4.67-7.47l3.5-6.8c1-2.39,2.42-5.56,3.32-8l2.38-7.43c.6-2.53,1.48-5.9,2-8.45l1.15-7.92c.2-3.09.51-7.21.55-10.3l-.34-8.14c-.31-2.61-.64-6.09-1.06-8.68l-1.62-7.75c-.73-2.47-1.62-5.79-2.45-8.22L190.87,60c-1.11-2.31-2.53-5.42-3.74-7.68l-3.87-6.54c-1.49-2.13-3.43-5-5-7.08L173.52,33c-1.89-1.94-4.37-4.57-6.34-6.43l-5.25-4.53c-7-5.25-7.71-5.8-13.43-9.15,24.41,13.9,40.5,41.32,40.44,75" transform="translate(-0.06 -0.01)"/><path class="cls-8" d="M2.28,79.17c17-72.63,113.31-75.51,156.1-4.67,15.17,25.11,18.26,55.7,8.06,79.84a112.24,112.24,0,0,0,22.5-66.46c.06-33.63-16-61-40.45-74.92l-5.1-2.7c-2.3-1.06-5.37-2.46-7.71-3.42L131.49,5.3c-1.48-.47-3.44-1.11-4.93-1.54l-3.39-.87c-1.06-.25-2.48-.59-3.56-.81l-2.82-.54c-.84-.14-2-.34-2.83-.46L111.51.75c-.73-.08-1.7-.2-2.43-.27L106.84.29,104.62.13,102.49.05H98.23c-.65,0-1.51,0-2.15.06l-2.24.1L91.55.38,89.08.61c-.78.1-1.82.21-2.6.32l-3.25.49a103.63,103.63,0,0,0-21.54,6.2L56.51,9.89A100,100,0,0,0,45.69,16l-5.56,3.9c-2.37,1.91-5.53,4.46-7.8,6.49l-5.16,5.11c-1.81,2.07-4.26,4.81-6,7l-4.39,6.08c-1.38,2.25-3.27,5.21-4.55,7.52l-3.39,6.8c-1,2.4-2.33,5.58-3.2,8L3.35,74.37C2.79,76.91,2,80.29,1.51,82.86l-.39,2.58c.34-1.89.76-4.4,1.16-6.27" transform="translate(-0.06 -0.01)"/><path class="cls-8" d="M188.94,87.89c0,24.32-8.53,47.67-22.5,66.46l-.53,1.58c-12.17,28.36-37.24,44.34-68.79,43.82H101c.65,0,1.51,0,2.15-.06l2.24-.1,2.29-.17,2.48-.23c.77-.1,1.81-.21,2.59-.32l3.22-.49a101.35,101.35,0,0,0,20-5.58l5.09-2.18a96.66,96.66,0,0,0,11.19-6.07l5.57-3.76c2.43-1.89,5.66-4.43,8-6.44l5.21-5c1.86-2.06,4.36-4.78,6.12-6.93l4.46-6c1.42-2.24,3.35-5.18,4.67-7.47l3.5-6.8c1-2.39,2.42-5.56,3.32-8l2.38-7.43c.6-2.53,1.48-5.9,2-8.45l1.15-7.92c.2-3.09.51-7.21.55-10.3l-.34-8.16c-.31-2.61-.64-6.09-1.06-8.68l-1.62-7.75c-.73-2.47-1.62-5.79-2.45-8.22L190.87,60c-1.11-2.31-2.53-5.42-3.74-7.68l-3.87-6.54c-1.49-2.13-3.43-5-5-7.08L173.52,33c-1.89-1.94-4.37-4.57-6.34-6.43l-5.25-4.53c-7-5.25-7.71-5.8-13.43-9.15,24.41,13.9,40.5,41.32,40.44,75" transform="translate(-0.06 -0.01)"/><path class="cls-9" d="M5,68.89C34.22-8.48,133.53,9.37,167.14,79.71c6.89,14.4,13.68,37,6.89,63a111.21,111.21,0,0,0,14.91-54.82c.06-33.63-16-61-40.45-74.92l-5.1-2.7c-2.3-1.06-5.37-2.46-7.71-3.42l-4.19-1.54c-1.48-.47-3.44-1.11-4.93-1.54l-3.39-.88c-1.06-.25-2.48-.59-3.56-.81l-2.82-.54c-.84-.14-2-.34-2.83-.46L111.51.75c-.73-.08-1.7-.2-2.43-.27L106.84.29,104.62.13,102.49.05H98.23c-.65,0-1.51,0-2.15.06l-2.24.1L91.55.38,89.08.61c-.78.1-1.82.21-2.6.32l-3.25.49a103.63,103.63,0,0,0-21.54,6.2L56.51,9.89A100,100,0,0,0,45.69,16l-5.56,3.9c-2.37,1.91-5.53,4.46-7.8,6.49l-5.16,5.11c-1.81,2.07-4.26,4.81-6,7l-4.39,6.08c-1.38,2.25-3.27,5.21-4.55,7.52l-3.39,6.8c-1,2.4-2.33,5.58-3.2,8l-1,3,.33-1" transform="translate(-0.06 -0.01)"/><path class="cls-9" d="M188.94,87.89A111.29,111.29,0,0,1,174,142.76c-.41,1.84-.94,4.29-1.35,6.13-13.11,35.9-39.55,47-59.43,49.94l3.25-.51A101.17,101.17,0,0,0,136,192.83l5.09-2.18a96.66,96.66,0,0,0,11.19-6.07l5.57-3.76c2.43-1.89,5.66-4.43,8-6.44l5.21-5c1.86-2.06,4.36-4.78,6.12-6.93l4.46-6c1.42-2.24,3.35-5.18,4.67-7.47l3.5-6.8c1-2.39,2.42-5.56,3.32-8l2.38-7.43c.6-2.53,1.48-5.9,2-8.45l1.15-7.92c.2-3.09.51-7.21.55-10.3l-.37-8.19c-.31-2.61-.64-6.09-1.06-8.68l-1.62-7.75c-.73-2.47-1.62-5.79-2.45-8.22L190.87,60c-1.11-2.31-2.53-5.42-3.74-7.68l-3.87-6.54c-1.49-2.13-3.43-5-5-7.08L173.52,33c-1.89-1.94-4.37-4.57-6.34-6.43l-5.25-4.53c-7-5.25-7.71-5.8-13.43-9.15,24.41,13.9,40.5,41.32,40.44,75" transform="translate(-0.06 -0.01)"/><path class="cls-10" d="M16.15,45.73c47.13-67.51,150.71-21,164,54.65,1.86,10.56,2.49,14.12,1,27.47a108.91,108.91,0,0,0,7.76-40c.06-33.63-16-61-40.45-74.92l-5.1-2.7c-2.3-1.06-5.37-2.46-7.71-3.42l-4.19-1.54C130,4.8,128,4.16,126.53,3.73l-3.36-.84c-1.06-.25-2.48-.59-3.56-.81l-2.82-.54c-.84-.14-2-.34-2.83-.46L111.51.75c-.73-.08-1.7-.2-2.43-.27L106.84.29,104.62.13,102.49.05H98.23c-.65,0-1.51,0-2.15.06l-2.24.1L91.55.38,89.08.61c-.78.1-1.82.21-2.6.32l-3.25.49a103.63,103.63,0,0,0-21.54,6.2L56.51,9.89A100,100,0,0,0,45.69,16l-5.56,3.9c-2.37,1.91-5.53,4.46-7.8,6.49l-5.16,5.11c-1.81,2.07-4.26,4.81-6,7l-4.39,6.08c-1.38,2.25-3.27,5.21-4.55,7.52L15,47.44c.33-.5.77-1.18,1.11-1.68" transform="translate(-0.06 -0.01)"/><path class="cls-10" d="M188.94,87.89a108.91,108.91,0,0,1-7.76,40h0c-.59,30.23-22.07,58-52.23,67.44l3.62-1.2,3.4-1.27,5.09-2.18a96.66,96.66,0,0,0,11.19-6.07l5.57-3.76c2.43-1.89,5.66-4.43,8-6.44l5.21-5c1.86-2.06,4.36-4.78,6.12-6.93l4.46-6c1.42-2.24,3.35-5.18,4.67-7.47l3.5-6.8c1-2.39,2.42-5.56,3.32-8l2.38-7.43c.6-2.53,1.48-5.9,2-8.45l1.15-7.92c.2-3.09.51-7.21.55-10.3l-.37-8.22c-.31-2.61-.64-6.09-1.06-8.68l-1.62-7.75c-.73-2.47-1.62-5.79-2.45-8.22L190.87,60c-1.11-2.31-2.53-5.42-3.74-7.68l-3.87-6.54c-1.49-2.13-3.43-5-5-7.08L173.52,33c-1.89-1.94-4.37-4.57-6.34-6.43l-5.25-4.53c-7-5.25-7.71-5.8-13.43-9.15,24.41,13.9,40.5,41.32,40.44,75" transform="translate(-0.06 -0.01)"/><path class="cls-11" d="M72.09,193.58c62.46,12.55,100.24-54.38,62.19-110.17C96.44,27.94,19.14,32.56,5,91.13c-11.51,47.76,26.58,94.32,67.05,102.45" transform="translate(-0.06 -0.01)"/><path class="cls-12" d="M63,190.16C128.06,210.6,165.3,145.69,135.84,93,100.17,29.11,20.56,37.15,6.62,91.21c-11.62,44.94,19.8,87.45,56.43,99" transform="translate(-0.06 -0.01)"/><path class="cls-13" d="M50.83,184c55.84,29.06,103.86-20.29,88.82-72C119.65,43.36,38,33,12.39,81.52-5.81,116,12.16,163.89,50.83,184" transform="translate(-0.06 -0.01)"/><path class="cls-14" d="M46.62,180.62c52.43,29.91,105.08-10.74,89.41-69-14.11-52.48-89.63-80.2-120.36-31-21.74,34.78-1.59,81.52,31,100.08" transform="translate(-0.06 -0.01)"/><path class="cls-15" d="M40.91,175.59c47.79,32.68,101.24,1.3,93.75-55-7.61-57.32-83-84.25-115.35-41.22-23.12,30.81-7.69,76.21,21.6,96.22" transform="translate(-0.06 -0.01)"/><path class="cls-16" d="M40,173.44c49.35,35.66,100-2.85,91.59-53.25C121.62,60.59,44.38,44.54,19.23,84-.83,115.49,14.39,154.94,40,173.44" transform="translate(-0.06 -0.01)"/><path class="cls-17" d="M40.79,172.34c50.91,36.25,96.09-8.45,87.67-52.45-11.29-59-84-71.59-109.12-31-16,25.93-6.59,62.58,21.45,83.43" transform="translate(-0.06 -0.01)"/><path class="cls-18" d="M34.92,165.43c44.31,40.45,92.34,5.84,91.33-36.88C124.88,70.33,56.18,54,27.89,82.89c-23.56,24-15.39,62.09,7,82.55" transform="translate(-0.06 -0.01)"/><path class="cls-19" d="M36.22,164.3c42,38.18,93,3.26,87-44.89C117.5,73,51.58,53.75,25.22,90.78c-17.74,25.11-7.6,56.6,11,73.52" transform="translate(-0.06 -0.01)"/><path class="cls-20" d="M37.88,163.13c42.71,37.72,89-2.93,83.28-43.88C115.08,75.65,54.37,57.89,28.35,92c-19.67,25.85-6.27,57.14,9.53,71.09" transform="translate(-0.06 -0.01)"/><path class="cls-21" d="M33.55,155.4c34.61,40.79,83.51,11.3,85.79-27.41C122,83.75,65,62.25,37.34,87.6c-27.28,25-14.42,55.29-3.81,67.8" transform="translate(-0.06 -0.01)"/><path class="cls-22" d="M35.84,154.21c32.35,37.11,78.87,9.32,81.4-26.36,2.66-37.62-45.38-67.09-78.51-37.4-22.64,20.29-15.31,49.5-2.89,63.76" transform="translate(-0.06 -0.01)"/><path class="cls-23" d="M38.62,153c29.94,33.66,73.8,7.54,76.51-25.25,2-24.18-15.46-38.5-26.1-43.15C76.69,79.19,58,76.51,38.83,94.37c-11.69,10.91-18.49,38.06-.21,58.61" transform="translate(-0.06 -0.01)"/><path class="cls-24" d="M41.81,151.77c26.94,27.9,68,8.79,71.24-24.15,3.67-37-40.09-58.93-68.87-34.52-19.4,16.47-16.89,43.63-2.37,58.67" transform="translate(-0.06 -0.01)"/><path class="cls-25" d="M39.54,143.37c21.51,32.71,68.13,17.09,72.05-15.81,3.89-32.67-32.9-54.62-61.51-36.67-16.67,10.48-21.7,35.48-10.54,52.45" transform="translate(-0.06 -0.01)"/><path class="cls-26" d="M42.87,142.37c19.23,28.28,62.6,18.69,67.26-14.87,2.09-15.07-5.58-28.78-21-37.59-4.21-2.4-19.46-9.25-38.81,3.47-9.81,6.45-22.06,27.44-7.41,49" transform="translate(-0.06 -0.01)"/><path class="cls-27" d="M45.62,141.63C59.92,160,81.4,155.79,83.8,155.24c.22,0,21.43-6.12,24.86-27.79,4.88-30.84-35.34-52.79-58.16-31.73-17.34,16-12.42,36.23-4.88,45.91" transform="translate(-0.06 -0.01)"/><path class="cls-28" d="M48.51,140.89c20,24.1,54.1,12.21,58.68-13.52C111.87,101,79.91,79.52,56.9,93.57c-26,15.87-13,41.76-8.39,47.32" transform="translate(-0.06 -0.01)"/><path class="cls-29" d="M49,136.89c7.51,11.69,19.58,16.8,34,14.4,9-1.5,20.23-11,22.75-23.87,2.39-12.13-4.41-25.62-16.52-32.82-.29-.17-13.11-4.11-13.32-4.09-12.5,1-12.5,1-20.82,6.8-15,10.49-13.88,27.44-6.08,39.58" transform="translate(-0.06 -0.01)"/><path class="cls-30" d="M53.27,139.89c8.86,9.23,24.35,11.83,29.35,9.74,12.1-5,12.1-5,18.24-13.77,2.06-2.92,4.74-10,3.68-17.34-2.81-19.75-19.6-24.2-28.62-26.59-3.79-1-9.38.23-12.94,1.89-.1,0-11.43,7.64-13.07,10.21-12.29,19.23,2.71,35.21,3.36,35.86" transform="translate(-0.06 -0.01)"/><path class="cls-31" d="M49.8,131.71c3.51,6.8,12.4,18,32.52,16.29,6-.5,18.28-10.13,20.43-20.68,3.29-16.16-9.35-26.59-9.89-27C86.27,95,76.09,93.24,76,93.22c-3.86-.65-9.3.53-12.89,2.09a34,34,0,0,0-10.71,8.34c-1,1.24-5.14,10.12-5.16,10.24s-1.77,9.46,2.57,17.87" transform="translate(-0.06 -0.01)"/><path class="cls-32" d="M51.47,131.38c2.17,3.92,10.81,16.59,30.53,15a17.12,17.12,0,0,0,9.47-4.13c5.07-5,8.13-8,9.84-14.92,2.86-11.52-3.42-21.49-10.26-27-4.4-3.53-14.91-5.85-15-5.86-3.88-.5-9.26.7-12.83,2.29C51.47,102,43.75,117.49,51.47,131.38" transform="translate(-0.06 -0.01)"/><path class="cls-33" d="M53.17,131.07s6.21,7.28,6.75,7.67c3.16,2.31,8.17,4.11,11.71,5.8,2.73,1.3,7,.39,10.06.15a17.81,17.81,0,0,0,9.65-4.14c4.47-4.26,7.37-8.72,8.6-13.26s2.68-16.28-10.6-26.83c-3.3-2.62-9-4.37-13.22-4.73a29.06,29.06,0,0,0-12.77,2.5c-6.63,3-19.39,17.23-10.18,32.84" transform="translate(-0.06 -0.01)"/><path class="cls-34" d="M54.91,130.76C58,136,65.62,144.59,81.46,143.33a18.39,18.39,0,0,0,9.76-4.44c4.77-4.47,7.32-11.51,7.34-11.58,2.61-8.85-1-18.73-9.18-25.17-1.26-1-11.49-5-13.19-5.13-3.88-.36-9.17,1.07-12.71,2.71-.21.1-19.46,12.75-8.57,31.06" transform="translate(-0.06 -0.01)"/><path class="cls-35" d="M56.68,130.47c3.52,5.87,10.39,9.09,14.07,10.82,2.85,1.33,7.33.91,10.47.67s7.45-2.56,9.88-4.78,6.06-9.82,6.08-9.88c2.79-8.77-1.72-18.82-7.69-23.46a29.44,29.44,0,0,0-13.23-5.58c-3.87-.4-9.12,1.24-12.64,2.9-2.6,1.23-9.17,11.38-9.18,11.46-1.12,4.73-2.39,10.1,2.24,17.85" transform="translate(-0.06 -0.01)"/><path class="cls-36" d="M58.33,130.21a36.38,36.38,0,0,0,12,9.43c2.92,1.34,7.45,1.18,10.65.93,0,0,9.17-4.45,10-5.19,2.1-1.88,3.93-5.4,4.82-8.07,3.73-11.14-4.16-20.23-6.31-21.88-1.79-1.37-11.5-5.74-13.15-5.91a106.5,106.5,0,0,0-12.56,3.2c-3,2.08-6.94,6-7.66,9.65-1,5.34-2.25,11.4,2.21,17.84" transform="translate(-0.06 -0.01)"/><path class="cls-37" d="M60,130c0,.06,8.09,7.2,9.94,8,3,1.33,7.58,1.45,10.84,1.2,1.13-.08,8.11-4.13,10.09-5.85a14.55,14.55,0,0,0,3.55-6A19.47,19.47,0,0,0,89.55,107c-.08-.06-12.46-6.23-13.13-6.3-.4,0-12,3.38-12.45,3.66-6.45,4.41-10.72,16.41-4,25.52" transform="translate(-0.06 -0.01)"/><path class="cls-38" d="M61.62,129.73a22,22,0,0,0,7.83,6.41,26.1,26.1,0,0,0,10.89,1.62c1.73-.14,10.28-6.42,10.35-6.49A9,9,0,0,0,93,127.35c3.24-9.67-2.73-18.11-3.44-18.63-3.53-2.59-8.72-6.07-13.09-6.51-3.86-.39-9.15,1.72-12.34,4-6,4.19-8.35,15.89-2.53,23.57" transform="translate(-0.06 -0.01)"/><path class="cls-39" d="M63.32,129.5a15.42,15.42,0,0,0,5.59,4.61c3.23,1.31,8,3,11.39,2.24,3.67-.79,7.34-4.82,10.29-7.15a3.9,3.9,0,0,0,1-1.82c3.3-10.88-1.18-16.06-3.26-17.78-3-2.53-7.83-5.65-11.78-5.93s-8.63,2.77-12.24,4.2c-4.2,1.69-4.72,13-4.72,13.17a20.27,20.27,0,0,0,3.72,8.46" transform="translate(-0.06 -0.01)"/><path class="cls-40" d="M65,129.29a9.45,9.45,0,0,0,3.6,3c3.31,1.2,8,3.23,11.48,2.5,3.65-.78,7.14-5,10-7.32.25-.2.26-.7.34-1,1.24-5.36,2.53-10.91-4.55-16.71-2.38-1.94-6.09-4.39-9.15-4.57-3.87-.21-8.62,2.83-12.13,4.46a4.13,4.13,0,0,0-1.51,1.87c-3,6.25-2.38,12.24,1.93,17.84" transform="translate(-0.06 -0.01)"/><path class="cls-41" d="M66.73,129.08a3.52,3.52,0,0,0,1.41,1.19c3.44,1.06,8.13,3.54,11.67,2.84,2.78-.55,5.91-3.33,7.61-5.6,1.53-2.05,2.25-5.57,2.64-8.1,0-.36.15-.92-.06-1.21-1.84-2.64-4.14-6.39-6.64-8.4-1.71-1.36-4.34-3.11-6.52-3.22-3.84-.19-9.42,1.75-11.93,4.67-1.89,2.19-2.5,6.5-2.21,9.38s2.31,6.23,4,8.45" transform="translate(-0.06 -0.01)"/><path class="cls-42" d="M67.49,127.1a5,5,0,0,0,1.9,1.69c3,1.07,7.08,3.26,10.18,2.68a9.39,9.39,0,0,0,5.18-3.84c1.55-2.39,3.6-6.16,3.14-9-.54-3.32-4.64-6.38-7-8.73A7.06,7.06,0,0,0,77,108c-2.65-.12-19.47,5.87-9.47,19.07" transform="translate(-0.06 -0.01)"/><path class="cls-43" d="M66.44,121.56a31.08,31.08,0,0,0,7.5,6.79c1.41.91,3.75,1.79,5.4,1.47a4.6,4.6,0,0,0,2.74-2c1.4-2.53,3.85-6.16,3.41-9,0-.09-6.67-9.19-8.41-9.27-.75,0-2.31-.11-11,9.79-.46.52,0,1.73.39,2.29" transform="translate(-0.06 -0.01)"/><path class="cls-44" d="M78.52,128a1,1,0,0,0,.6.17c.63-.12,4-9.21,4-9.3-.4-2.67-3.09-6.76-5.79-6.89-3.37-.16-8.14,4.55-8,7.92.15,3.68,6,6.33,9.21,8.1" transform="translate(-0.06 -0.01)"/><path class="cls-45" d="M78.62,124.12c1.62-.38,2.35-3.49,2.09-5.12-.22-1.41-1.64-3.54-3.06-3.61-1.77-.08-4.26,2.36-4.21,4.12,0,2.08,3.16,5.08,5.18,4.61" transform="translate(-0.06 -0.01)"/><path class="cls-46" d="M78.08,119.67c.17,0,.25-.36.22-.52s-.17-.36-.31-.37a.52.52,0,0,0-.44.42c0,.21.32.52.53.47" transform="translate(-0.06 -0.01)"/></g><g class="cls-47"><path class="cls-3" d="M50.71,186.82a100.24,100.24,0,0,1-39.5-41C-2.73,119.4.28,92.71.42,91.59,2.29,76,3.62,72.13,8.47,59.75A102.46,102.46,0,0,1,21.19,38.46C27.1,31.29,42.79,12.23,72.7,3.77A98.66,98.66,0,0,1,148.49,13c-14-8-30.72-11.46-48.71-9.13C117.78,1.5,134.49,5,148.49,13c6.06,3.72,15.23,9.34,23.87,18.86a101.18,101.18,0,0,1,18.16,27.43,94.1,94.1,0,0,1,5.42,15.51,145.87,145.87,0,0,1,2.81,16.44c.3,2.31,1.1,10.92-.95,25a100,100,0,0,1-76.2,81.1,98.71,98.71,0,0,1-70.89-10.45" transform="translate(-0.06 -0.01)"/><path class="cls-3" d="M148.49,13a105,105,0,0,1,18.68,13.68l5.19,5.18c1.78,2.06,4.2,4.79,5.89,6.93l4.37,6.14c1.36,2.24,3.23,5.19,4.49,7.49l3.39,6.88c1,2.4,2.31,5.58,3.16,8l2.26,7.49c.55,2.54,1.37,5.92,1.81,8.48l1,8c.13,2.66.37,6.2.38,8.86l-.35,8.14c-.37,3-.82,7.07-1.35,10.08l-1.75,7.7c-.77,2.45-1.72,5.76-2.59,8.18l-2.93,7.14c-1.16,2.3-2.64,5.4-3.89,7.65l-4,6.43c-1.54,2.12-3.54,5-5.17,7l-4.79,5.53c-1.94,1.95-4.51,4.56-6.54,6.42l-5.26,4.39c-2.46,1.78-5.75,4.15-8.3,5.81l-5,2.94a95.82,95.82,0,0,1-11.28,5.31l-3.6,1.35a102.29,102.29,0,0,1-19.59,4.73l-2.56.32-2.51.23-2.28.17c-.68,0-1.57.08-2.25.1l-2.15.06H96.71l-2.13-.08-2.21-.14-2.25-.19-2.4-.27c-.74-.1-1.74-.22-2.48-.33l-2.74-.44-2.92-.56L76.3,197c-1.1-.29-2.57-.65-3.66-1l-4.09-1.26c-1.51-.54-3.54-1.24-5-1.82l-5.08-2.16c-2.33-1.16-5.44-2.71-7.72-4l-5.68-3.48c-2.59-1.83-6-4.31-8.51-6.28l-5.41-4.78c-2-2-4.59-4.65-6.46-6.75l-4.7-5.8c-1.5-2.18-3.56-5.05-5-7.29l-3.77-6.64c-1.1-2.34-2.63-5.44-3.63-7.83l-2.68-7.29c-.7-2.5-1.71-5.8-2.3-8.33L1.15,114.5C.68,110.07.22,104.14.08,99.69l.34-8.1c.32-2.6.66-6.09,1.09-8.67l1.65-7.74C3.89,72.7,4.8,69.39,5.64,67l2.83-7.2c1.13-2.31,2.56-5.43,3.78-7.69l3.88-6.5c1.51-2.14,3.47-5,5.06-7.1l4.73-5.57c1.91-2,4.42-4.59,6.41-6.46l5.29-4.54C40,20.09,43.24,17.7,45.74,16l5-3.13A98.64,98.64,0,0,1,61.69,7.54l3.66-1.43A103.14,103.14,0,0,1,86.48.89L89,.57,91.55.34,93.83.17c.68,0,1.57-.08,2.25-.1L98.23,0h4.26l2.13.08,2.21.14,2.25.19,2.39.27c.75.1,1.75.22,2.49.33l2.74.44,2.91.56,3.28.74c1.1.28,2.57.65,3.67,1L130.62,5c1.51.54,3.53,1.24,5,1.82L140.7,9c2.34,1.15,5.44,2.71,7.73,4-14-8-30.72-11.46-48.71-9.13L99.46,4c-73.68,19.16-65.84,108.93-4,144.93,50,29.12,115.86-9.15,99.7-74.52C193.25,66.85,174.78,1,99.78,3.85c18-2.33,34.71,1.18,48.71,9.13" transform="translate(-0.06 -0.01)"/><path class="cls-4" d="M148.49,13a105,105,0,0,1,18.68,13.68l5.19,5.18c1.78,2.06,4.2,4.79,5.89,6.93l4.37,6.14c1.36,2.24,3.23,5.19,4.49,7.49l3.39,6.88c1,2.4,2.31,5.58,3.16,8l2.26,7.49c.55,2.54,1.37,5.92,1.81,8.48l1,8c.13,2.66.37,6.2.38,8.86l-.35,8.14c-.37,3-.82,7.07-1.35,10.08l-1.75,7.7c-.77,2.45-1.72,5.76-2.59,8.18l-2.93,7.14c-1.16,2.3-2.64,5.4-3.89,7.65l-4,6.43c-1.54,2.12-3.54,5-5.17,7l-4.79,5.53c-1.94,1.95-4.51,4.56-6.54,6.42l-5.26,4.39c-2.46,1.78-5.75,4.15-8.3,5.81l-5,2.94a95.82,95.82,0,0,1-11.28,5.31l-3.6,1.35a102.29,102.29,0,0,1-19.59,4.73l-2.56.32-2.51.23-2.28.17c-.68,0-1.57.08-2.25.1l-2.15.06H96.71l-2.13-.08-2.21-.14-2.25-.19-2.4-.27c-.74-.1-1.74-.22-2.48-.33l-2.74-.44-2.92-.56L76.3,197c-1.1-.29-2.57-.65-3.66-1l-4.09-1.26c-1.51-.54-3.54-1.24-5-1.82l-5.08-2.16c-2.33-1.16-5.44-2.71-7.72-4l-5.68-3.48c-2.59-1.83-6-4.31-8.51-6.28l-5.41-4.78c-2-2-4.59-4.65-6.46-6.75l-4.7-5.8c-1.5-2.18-3.56-5.05-5-7.29l-3.77-6.64c-1.1-2.34-2.63-5.44-3.63-7.83l-2.68-7.29c-.7-2.5-1.71-5.8-2.3-8.33L1.15,114.5C.68,110.07.22,104.14.08,99.69l.34-8.1c.32-2.6.66-6.09,1.09-8.67l1.65-7.74C3.89,72.7,4.8,69.39,5.64,67l2.83-7.2c1.13-2.31,2.56-5.43,3.78-7.69l3.88-6.5c1.51-2.14,3.47-5,5.06-7.1l4.73-5.57c1.91-2,4.42-4.59,6.41-6.46l5.29-4.54C40,20.09,43.24,17.7,45.74,16l5-3.13A98.64,98.64,0,0,1,61.69,7.54l3.66-1.43A103.14,103.14,0,0,1,86.48.89L89,.57,91.55.34,93.83.17c.68,0,1.57-.08,2.25-.1L98.23,0h4.26l2.13.08,2.21.14,2.25.19,2.39.27c.75.1,1.75.22,2.49.33l2.74.44,2.91.56,3.28.74c1.1.28,2.57.65,3.67,1L130.62,5c1.51.54,3.53,1.24,5,1.82L140.7,9c2.34,1.15,5.44,2.71,7.73,4a74.47,74.47,0,0,0-15.59-6.64l-.27-.09C59.49-14.43,20.92,57,55,115.15c38.12,65.12,126.64,62.06,141.37-4.89,9.33-42.37-19.13-89.05-63.44-103.94A74.47,74.47,0,0,1,148.49,13" transform="translate(-0.06 -0.01)"/><path class="cls-5" d="M193.68,67.27a98.24,98.24,0,0,1,4.07,16l1,8c.13,2.66.37,6.2.38,8.86l-.35,8.14c-.37,3-.82,7.07-1.35,10.08l-1.75,7.7c-.77,2.45-1.72,5.76-2.59,8.18l-2.93,7.14c-1.16,2.3-2.64,5.4-3.89,7.65l-4,6.43c-1.54,2.12-3.54,5-5.17,7L172.31,168c-1.94,2-4.51,4.56-6.54,6.42l-5.26,4.39c-2.46,1.78-5.75,4.15-8.3,5.81l-5,2.94a95.82,95.82,0,0,1-11.28,5.31l-3.6,1.35a103.14,103.14,0,0,1-19.61,4.69l-2.56.32-2.51.23-2.28.17c-.68,0-1.57.08-2.25.1l-2.15.06H96.71l-2.13-.08-2.21-.14-2.25-.19-2.4-.27c-.74-.1-1.74-.22-2.48-.33l-2.74-.44-2.92-.56L76.3,197c-1.1-.29-2.57-.65-3.66-1l-4.09-1.26c-1.51-.54-3.54-1.24-5-1.82l-5.08-2.16c-2.33-1.16-5.44-2.71-7.72-4l-5.68-3.48c-2.59-1.83-6-4.31-8.51-6.28l-5.41-4.78c-2-2-4.59-4.65-6.46-6.75l-4.7-5.8c-1.5-2.18-3.56-5.05-5-7.29l-3.77-6.64c-1.1-2.34-2.63-5.44-3.63-7.83l-2.68-7.29c-.7-2.5-1.71-5.8-2.3-8.33L1.15,114.5C.68,110.07.22,104.14.08,99.69l.34-8.1c.32-2.6.66-6.09,1.09-8.67l1.65-7.74C3.89,72.7,4.8,69.39,5.64,67l2.83-7.2c1.13-2.31,2.56-5.43,3.78-7.69l3.88-6.5c1.51-2.14,3.47-5,5.06-7.1l4.73-5.57c1.91-2,4.42-4.59,6.41-6.46l5.29-4.54C40,20.09,43.24,17.7,45.74,16l5-3.13A98.64,98.64,0,0,1,61.69,7.54l3.66-1.43A103.14,103.14,0,0,1,86.48.89L89,.57,91.55.34,93.83.17c.68,0,1.57-.08,2.25-.1L98.23,0h4.26l2.13.08,2.21.14,2.25.19,2.39.27c.75.1,1.75.22,2.49.33l2.74.44,2.91.56,3.28.74c1.1.28,2.57.65,3.67,1L130.62,5c1.51.54,3.53,1.24,5,1.82L140.7,9c2.34,1.15,5.44,2.71,7.73,4-.58-.33-1.17-.65-1.76-1h0c-71-35.11-124.79,25-102.62,89.19C68,170.43,159.56,188.94,190.32,130.75c4.84-9.17,14.74-34,2.07-67,.39,1.06.94,2.46,1.29,3.53" transform="translate(-0.06 -0.01)"/><path class="cls-5" d="M148.49,13c1.52.89,3.51,2.14,5,3.05l-6-3.59-.8-.43c.59.32,1.18.64,1.76,1" transform="translate(-0.06 -0.01)"/><path class="cls-6" d="M197.75,83.24a102,102,0,0,1,1.38,16.82l-.35,8.14c-.37,3-.82,7.07-1.35,10.08l-1.75,7.7c-.77,2.45-1.72,5.76-2.59,8.18l-2.93,7.14c-1.16,2.3-2.64,5.4-3.89,7.65l-4,6.43c-1.54,2.12-3.54,5-5.17,7l-4.79,5.53c-1.94,2-4.51,4.56-6.54,6.42l-5.26,4.39c-2.46,1.78-5.75,4.15-8.3,5.81l-5,2.94a95.82,95.82,0,0,1-11.28,5.31l-3.6,1.35a102.38,102.38,0,0,1-19.61,4.76l-2.56.32-2.51.23-2.28.17c-.68,0-1.57.08-2.25.1l-2.15.06H96.71l-2.13-.08-2.21-.14-2.25-.19-2.4-.27c-.74-.1-1.74-.22-2.48-.33l-2.74-.44-2.92-.56L76.3,197c-1.1-.29-2.57-.65-3.66-1l-4.09-1.26c-1.51-.54-3.54-1.24-5-1.82l-5.08-2.16c-2.33-1.16-5.44-2.71-7.72-4l-5.68-3.48c-2.59-1.83-6-4.31-8.51-6.28l-5.41-4.78c-2-2-4.59-4.65-6.46-6.75l-4.7-5.8c-1.5-2.18-3.56-5.05-5-7.29l-3.77-6.64c-1.1-2.34-2.63-5.44-3.63-7.83l-2.68-7.29c-.7-2.5-1.71-5.8-2.3-8.33L1.15,114.5C.68,110.07.22,104.14.08,99.69l.34-8.1c.32-2.6.66-6.09,1.09-8.67l1.65-7.74C3.89,72.7,4.8,69.39,5.64,67l2.83-7.2c1.13-2.31,2.56-5.43,3.78-7.69l3.88-6.5c1.51-2.14,3.47-5,5.06-7.1l4.73-5.57c1.91-2,4.42-4.59,6.41-6.46l5.29-4.54C40,20.09,43.24,17.7,45.74,16l5-3.13A98.64,98.64,0,0,1,61.69,7.54l3.66-1.43A103.14,103.14,0,0,1,86.48.89L89,.57,91.55.34,93.83.17c.68,0,1.57-.08,2.25-.1L98.23,0h4.26l2.13.08,2.21.14,2.25.19,2.39.27c.75.1,1.75.22,2.49.33l2.74.44,2.91.56,3.28.74c1.1.28,2.57.65,3.67,1L130.62,5l2.39.83-5.22-1.71c-68.45-19.39-117,48-81.23,112.66C86,188,176.39,181.64,195,122.8a83.36,83.36,0,0,0,2.63-39.95,3.43,3.43,0,0,0,.08.42" transform="translate(-0.06 -0.01)"/><path class="cls-7" d="M199.13,100.06a102.09,102.09,0,0,1-1.7,18.22l-1.75,7.7c-.77,2.45-1.72,5.76-2.59,8.18l-2.93,7.14c-1.16,2.3-2.64,5.4-3.89,7.65l-4,6.43c-1.54,2.12-3.54,5-5.17,7l-4.79,5.53c-1.94,2-4.51,4.56-6.54,6.42l-5.26,4.39c-2.46,1.78-5.75,4.15-8.3,5.81l-5,2.94a95.82,95.82,0,0,1-11.28,5.31l-3.6,1.35a102.38,102.38,0,0,1-19.61,4.76l-2.56.32-2.51.23-2.28.17c-.68,0-1.57.08-2.25.1l-2.15.06H96.71l-2.13-.08-2.21-.14-2.25-.19-2.4-.27c-.74-.1-1.74-.22-2.48-.33l-2.74-.44-2.92-.56L76.3,197c-1.1-.29-2.57-.65-3.66-1l-4.09-1.26c-1.51-.54-3.54-1.24-5-1.82l-5.08-2.16c-2.33-1.16-5.44-2.71-7.72-4l-5.68-3.48c-2.59-1.83-6-4.31-8.51-6.28l-5.41-4.78c-2-2-4.59-4.65-6.46-6.75l-4.7-5.8c-1.5-2.18-3.56-5.05-5-7.29l-3.77-6.64c-1.1-2.34-2.63-5.44-3.63-7.83l-2.68-7.29c-.7-2.5-1.71-5.8-2.3-8.33L1.15,114.5C.68,110.07.22,104.14.08,99.69l.34-8.1c.32-2.6.66-6.09,1.09-8.67l1.65-7.74C3.89,72.7,4.8,69.39,5.64,67l2.83-7.2c1.13-2.31,2.56-5.43,3.78-7.69l3.88-6.5c1.51-2.14,3.47-5,5.06-7.1l4.73-5.57c1.91-2,4.42-4.59,6.41-6.46l5.29-4.54C40,20.09,43.24,17.7,45.74,16l5-3.13A98.64,98.64,0,0,1,61.69,7.54l3.66-1.43A103.14,103.14,0,0,1,86.48.89L89,.57,91.55.34,93.83.17c.68,0,1.57-.08,2.25-.1L98.23,0h4.26l2.13.08,2.21.14,2.25.19,2.39.27c.75.1,1.75.22,2.49.33l2.74.44.74.13-.82-.1C38.37-10.69,7.5,76.18,51.62,133.11c47.58,61.39,138.07,48.08,146.71-21.58a84.37,84.37,0,0,0,.8-12.2v.73" transform="translate(-0.06 -0.01)"/><path class="cls-8" d="M197.43,118.28a97.9,97.9,0,0,1-4.34,15.88l-2.93,7.14c-1.16,2.3-2.64,5.4-3.89,7.65l-4,6.43c-1.54,2.12-3.54,5-5.17,7l-4.79,5.53c-1.94,2-4.51,4.56-6.54,6.42l-5.26,4.39c-2.46,1.78-5.75,4.15-8.3,5.81l-5,2.94a95.82,95.82,0,0,1-11.28,5.31l-3.6,1.35a102.38,102.38,0,0,1-19.61,4.76l-2.56.32-2.51.23-2.28.17c-.68,0-1.57.08-2.25.1l-2.15.06H96.71l-2.13-.08-2.21-.14-2.25-.19-2.4-.27c-.74-.1-1.74-.22-2.48-.33l-2.74-.44-2.92-.56L76.3,197c-1.1-.29-2.57-.65-3.66-1l-4.09-1.26c-1.51-.54-3.54-1.24-5-1.82l-5.08-2.16c-2.33-1.16-5.44-2.71-7.72-4l-5.68-3.48c-2.59-1.83-6-4.31-8.51-6.28l-5.41-4.78c-2-2-4.59-4.65-6.46-6.75l-4.7-5.8c-1.5-2.18-3.56-5.05-5-7.29l-3.77-6.64c-1.1-2.34-2.63-5.44-3.63-7.83l-2.68-7.29c-.7-2.5-1.71-5.8-2.3-8.33L1.15,114.5C.68,110.07.22,104.14.08,99.69l.34-8.1c.32-2.6.66-6.09,1.09-8.67l1.65-7.74C3.89,72.7,4.8,69.39,5.64,67l2.83-7.2c1.13-2.31,2.56-5.43,3.78-7.69l3.88-6.5c1.51-2.14,3.47-5,5.06-7.1l4.73-5.57c1.91-2,4.42-4.59,6.41-6.46l5.29-4.54C40,20.09,43.24,17.7,45.74,16l5-3.13A98.64,98.64,0,0,1,61.69,7.54l3.66-1.43A103.14,103.14,0,0,1,86.48.89L89,.57,91.55.34,93.83.17c.68,0,1.57-.08,2.25-.1L98.23,0h2.3C26.62.36.8,89.89,58,147.34c46.65,46.86,127,37.72,140.07-33-.19,1.18-.42,2.75-.65,3.92" transform="translate(-0.06 -0.01)"/><path class="cls-9" d="M193.09,134.16A98,98,0,0,1,186.27,149l-4,6.43c-1.54,2.12-3.54,5-5.17,7l-4.79,5.53c-1.94,2-4.51,4.56-6.54,6.42l-5.26,4.39c-2.46,1.78-5.75,4.15-8.3,5.81l-5,2.94a95.82,95.82,0,0,1-11.28,5.31l-3.6,1.35a102.38,102.38,0,0,1-19.61,4.76l-2.56.32-2.51.23-2.28.17c-.68,0-1.57.08-2.25.1l-2.15.06H96.71l-2.13-.08-2.21-.14-2.25-.19-2.4-.27c-.74-.1-1.74-.22-2.48-.33l-2.74-.44-2.92-.56L76.3,197c-1.1-.29-2.57-.65-3.66-1l-4.09-1.26c-1.51-.54-3.54-1.24-5-1.82l-5.08-2.16c-2.33-1.16-5.44-2.71-7.72-4l-5.68-3.48c-2.59-1.83-6-4.31-8.51-6.28l-5.41-4.78c-2-2-4.59-4.65-6.46-6.75l-4.7-5.8c-1.5-2.18-3.56-5.05-5-7.29l-3.77-6.64c-1.1-2.34-2.63-5.44-3.63-7.83l-2.68-7.29c-.7-2.5-1.71-5.8-2.3-8.33L1.15,114.5C.68,110.07.22,104.14.08,99.69l.34-8.1c.32-2.6.66-6.09,1.09-8.67l1.65-7.74C3.89,72.7,4.8,69.39,5.64,67l2.83-7.2c1.13-2.31,2.56-5.43,3.78-7.69l3.88-6.5c1.51-2.14,3.47-5,5.06-7.1l4.73-5.57c1.91-2,4.42-4.59,6.41-6.46l5.29-4.54C40,20.09,43.24,17.7,45.74,16l5-3.13A98.64,98.64,0,0,1,61.69,7.54l3.66-1.43A103.13,103.13,0,0,1,86,1l-1.55.23C8.4,14.38-1.1,114.15,69,162.89c49.13,34.19,109,18.41,125.54-33.1-.44,1.3-1,3-1.47,4.33" transform="translate(-0.06 -0.01)"/><path class="cls-10" d="M186.27,149a99.92,99.92,0,0,1-9.13,13.47L172.35,168c-1.94,2-4.51,4.56-6.54,6.42l-5.26,4.39c-2.46,1.78-5.75,4.15-8.3,5.81l-5,2.94A95.82,95.82,0,0,1,136,192.82l-3.6,1.35a102.11,102.11,0,0,1-19.65,4.72l-2.56.32-2.51.23-2.28.17c-.68,0-1.57.08-2.25.1l-2.15.06H96.71l-2.13-.08-2.21-.14-2.25-.19-2.4-.27c-.74-.1-1.74-.22-2.48-.33l-2.74-.44-2.92-.56L76.3,197c-1.1-.29-2.57-.65-3.66-1l-4.09-1.26c-1.51-.54-3.54-1.24-5-1.82l-5.08-2.16c-2.33-1.16-5.44-2.71-7.72-4l-5.68-3.48c-2.59-1.83-6-4.31-8.51-6.28l-5.41-4.78c-2-2-4.59-4.65-6.46-6.75l-4.7-5.8c-1.5-2.18-3.56-5.05-5-7.29l-3.77-6.64c-1.1-2.34-2.63-5.44-3.63-7.83l-2.68-7.29c-.7-2.5-1.71-5.8-2.3-8.33L1.15,114.5C.68,110.07.22,104.14.08,99.69l.34-8.1c.32-2.6.66-6.09,1.09-8.67l1.65-7.74C3.89,72.7,4.8,69.39,5.64,67l2.83-7.2c1.13-2.31,2.56-5.43,3.78-7.69l3.88-6.5c1.51-2.14,3.47-5,5.06-7.1l4.73-5.57c1.91-2,4.42-4.59,6.41-6.46l5.29-4.54C40,20.09,43.24,17.7,45.74,16l5-3.13A98.64,98.64,0,0,1,61.69,7.54l3.66-1.43C67,5.53,69.26,4.77,71,4.24l-.28.08C-2.24,27.43.54,135.12,75.05,173.8c51.94,27,94.57,5.09,112.21-26.65-.3.54-.68,1.27-1,1.8" transform="translate(-0.06 -0.01)"/><path class="cls-11" d="M143.67,11.71C206,41.32,215,128.34,158.05,150.71,98.28,174.16,29.62,102.62,54.62,42.89c16.05-38.38,57.87-46,89-31.16" transform="translate(-0.06 -0.01)"/><path class="cls-12" d="M152.2,16.89c59.94,36.76,57,121.58-4.67,133.47C82.41,163,27.18,81.75,65.44,29.71c22-29.82,60.26-29,86.76-12.82" transform="translate(-0.06 -0.01)"/><path class="cls-13" d="M159.94,23C214.06,64.89,199,136.94,148.07,146.94,91.62,158,31.73,87.35,68,31.37,84.09,6.43,123.85-3.86,160,23" transform="translate(-0.06 -0.01)"/><path class="cls-14" d="M166.83,29.89C216,77.25,189.06,144.72,136.1,144.66,74.35,144.59,35.7,66.32,77,25c26.06-26,66.12-18,89.8,4.85" transform="translate(-0.06 -0.01)"/><path class="cls-15" d="M166.62,31c44.5,41.9,25.87,109.9-30.25,110.23C76.2,141.58,40.27,67,80.62,25.56c21.52-22.06,59.26-19.67,86,5.43" transform="translate(-0.06 -0.01)"/><path class="cls-16" d="M172.24,38.68c36.39,44.87,10.68,103.78-43,98.48-61.77-6.1-81.07-82.86-41.42-113.9C115,2,152.82,14.7,172.23,38.68" transform="translate(-0.06 -0.01)"/><path class="cls-17" d="M171.46,39.79c36.25,45,6.28,103.66-47.86,93.73C69.94,123.68,50.69,53.39,93.31,22.89,115.89,6.74,151,14.31,171.46,39.76" transform="translate(-0.06 -0.01)"/><path class="cls-18" d="M175.7,48.28c28.49,47.31-7.76,90.76-52,82.31C65.05,119.41,60.1,51.1,93.46,26.64c31.34-23,67.9-2.19,82.24,21.64" transform="translate(-0.06 -0.01)"/><path class="cls-19" d="M174.37,49.41c26.48,44.76-8.63,86.06-50.7,78.2-58-10.85-59.68-77.93-25-100.84,26.39-17.4,61.05-2,75.65,22.64" transform="translate(-0.06 -0.01)"/><path class="cls-20" d="M172.74,50.58c26.21,45.38-13,84.72-56.43,72.68C67.62,109.78,67,48.62,104.62,27c24.13-13.86,55.27,1.29,68.13,23.56" transform="translate(-0.06 -0.01)"/><path class="cls-21" d="M174.76,59.89c15,40.06-24.85,76.55-64.54,59.16-43.34-19-36.58-76.15.8-91.36,23.5-9.56,53.88,5.79,63.74,32.2" transform="translate(-0.06 -0.01)"/><path class="cls-22" d="M172.37,61.09c13.26,38.57-24.51,72.53-62.17,55.9C68.67,98.65,75.7,46.37,112,31c25-10.61,52.47,7.16,60.37,30.13" transform="translate(-0.06 -0.01)"/><path class="cls-23" d="M169.62,62.29c12.63,38.26-27.62,67-59.44,52.92C71.41,98,78.76,47.34,112.88,34.14c24.79-9.59,49.8,7.14,56.74,28.15" transform="translate(-0.06 -0.01)"/><path class="cls-24" d="M166.67,63.43c12,36.26-26.31,63.42-56.51,50-33.49-14.88-31.3-62.66,3.49-76.3,16.4-6.43,44.5.46,53,26.3" transform="translate(-0.06 -0.01)"/><path class="cls-25" d="M165.47,73.34c1.92,28.51-18.81,37-28.78,41-8.13,3.33-19.22-.32-26.56-2.73-3.15-1-13.1-10.24-13.19-10.33C78.78,83.49,85.86,43.15,122.06,38.4c22.92-3,42.15,16.31,43.41,34.94" transform="translate(-0.06 -0.01)"/><path class="cls-26" d="M162.62,74.16c2.54,20.15-13.55,32.14-13.71,32.25-10.29,6.59-10.29,6.59-25.42,7.48-.07,0-11.94-2.78-15.16-5.11-37.71-27.36-13.39-60.43,6.56-66.49,19.08-5.79,44.63,7.13,47.74,31.87" transform="translate(-0.06 -0.01)"/><path class="cls-27" d="M160.34,74.78c2.79,25.82-27.75,51.33-56.33,28.71-29.39-23.3-7.24-60.13,19.87-60.07,13.87,0,34.25,10.94,36.46,31.36" transform="translate(-0.06 -0.01)"/><path class="cls-28" d="M158,75.37c3.12,34.49-36.21,46-57,24.17a31.54,31.54,0,0,1,23.77-53.65c19,.49,32.14,17.48,33.23,29.45" transform="translate(-0.06 -0.01)"/><path class="cls-29" d="M155.49,75.94c3.11,33.56-35.59,41.44-52.76,23.59-21.35-22.19-3-53.73,22.64-51.63,20.75,1.69,29.37,20,30.12,28" transform="translate(-0.06 -0.01)"/><path class="cls-30" d="M153.62,76.33c2.49,17.12-8.1,23.77-17.44,29.64-1.32.83-13.08,4.73-26.23-2.22-.72-.38-17.68-9.59-15-31.3.65-5.25,7.78-19.12,21.61-22.29,11.36-2.62,34.06,5.34,37.06,26.17" transform="translate(-0.06 -0.01)"/><path class="cls-31" d="M152,85.94c0,.06-3.84,8.67-5.16,10.22-2.65,3.09-7.4,6-10.71,8.33s-9,1.77-12.89,2.1c-1.17.09-16.79-2.29-24.19-16.24-9.31-17.53,4.55-42,27.5-38.72C142.76,54,155.61,71.26,152,85.94" transform="translate(-0.06 -0.01)"/><path class="cls-32" d="M150.17,86.27c-4.64,17.21-20.33,18.5-27,19-4.19.34-9.74-2.21-13.25-4.52-3-2-9.44-10.38-9.48-10.45-8.68-15.67,2.39-40.7,26.66-36.82,1.37.22,11.65,5.06,11.7,5.1,2.79,2,4.19,3,9,9.77,4.52,6.42,2.46,17.77,2.44,17.87" transform="translate(-0.06 -0.01)"/><path class="cls-33" d="M148.33,86.59c-2.25,7.89-9.42,12.84-12.48,15s-8.88,2.19-12.77,2.5c-4.14.34-9.55-2.39-13-4.65a29.26,29.26,0,0,1-8.21-9,23.75,23.75,0,0,1,1.66-26.5c8.76-12,23.93-8.7,24.09-8.66A37.18,37.18,0,0,1,139.28,61c.5.36,6.71,7.62,6.75,7.67,5.11,7.71,2.41,17.46,2.3,17.87" transform="translate(-0.06 -0.01)"/><path class="cls-34" d="M146.45,86.89a29.88,29.88,0,0,1-10.73,13.18c-3.23,2.19-8.82,2.4-12.71,2.71-.27,0-9.76-3-13.19-5.13a23.33,23.33,0,0,1-6.59-7.32c-5.18-8.79-4.52-17.69,2-26.46,4.1-5.52,14.12-9.21,22.81-7,.26.07,25,8.22,18.44,30" transform="translate(-0.06 -0.01)"/><path class="cls-35" d="M145.32,82.25c-.16,1.48.15,3.61-.56,4.92C142.93,90.56,140,95,137.1,97.48c-1.49,1.28-1.84,1.58-14.16,4-.1,0-12.61-1.85-18.26-11.15-7.88-13-.52-22.82,2.25-26.53,2.11-2.83,11-6,11-6,3-.75,7.43-.13,10.47.68,7.77,2.06,14,10.73,14.06,10.82,3.62,5.09,3.17,9.44,2.81,12.93" transform="translate(-0.06 -0.01)"/><path class="cls-36" d="M143.07,87.42c-1.42,3.41-4.54,7.66-7.65,9.64a110.56,110.56,0,0,1-12.56,3.2c-.1,0-12.47-2.89-16.82-10-7.83-12.71-.3-22.66,2.18-25.93.21-.27,9.46-5,10-5.16,3.14-.65,7.56.07,10.65.93,1.94.55,20.84,11.43,14.2,27.28" transform="translate(-0.06 -0.01)"/><path class="cls-37" d="M141.36,87.66c-1.19,2.7-3.62,6.14-6.13,7.68-.6.36-12,3.72-12.45,3.67-.72-.09-13.06-6.25-13.13-6.31-2.43-2.12-3.85-6.51-5-9.52-2.74-7,1.59-14.86,3.7-16.69,3.35-2.9,10.08-5.88,10.13-5.89,3.19-.71,7.7.28,10.84,1.2,1.32.39,9.91,8,9.94,8,1.16,2.49,3.07,5.77,3.39,8.49a20,20,0,0,1-1.26,9.35" transform="translate(-0.06 -0.01)"/><path class="cls-38" d="M139.62,87.89c-.92,2-2.68,4.63-4.59,5.72-3.38,1.93-8.53,4.68-12.35,4a30,30,0,0,1-13.06-6.55c-1.93-1.8-4.41-9.71-4.41-9.78s-.16-10.3,3.31-12.79c.08-.06,8.65-6.14,10.19-6.49,3.27-.74,8,.24,11,1.64a24.82,24.82,0,0,1,7.83,6.42c1.44,1.79,2.11,4.92,3,7,1.52,3.91-1,10.83-1,10.83" transform="translate(-0.06 -0.01)"/><path class="cls-39" d="M137.87,88.12a8.72,8.72,0,0,1-3.05,3.77c-3.44,1.79-8.45,5-12.24,4.19a28.37,28.37,0,0,1-11.77-5.91c-2.42-2.23-4.34-8.87-4.35-8.93s-.25-7.24,2.15-10.68c2.15-3.09,6.62-6.35,10.29-7.15,3.37-.73,8.09.87,11.29,2.16a15.59,15.59,0,0,1,5.58,4.61,19.67,19.67,0,0,1,3.85,8.57,19.48,19.48,0,0,1-1.72,9.37" transform="translate(-0.06 -0.01)"/><path class="cls-40" d="M136.11,88.33a4.09,4.09,0,0,1-1.49,1.87c-3.52,1.62-8.26,4.67-12.13,4.44-3-.19-6.65-2.74-9.12-4.55a18.38,18.38,0,0,1-4-5.06c-3.51-5.85-.29-12.61-.25-12.67,2.22-3,6.4-6.53,10-7.31,3.44-.75,8.17,1.29,11.48,2.49a9.06,9.06,0,0,1,3.55,3c1.64,2.26,3.57,5.68,3.87,8.46a19.56,19.56,0,0,1-1.94,9.37" transform="translate(-0.06 -0.01)"/><path class="cls-41" d="M134.36,88.44c-2.53,2.93-8.14,4.93-12,4.74-2.16-.11-4.85-1.77-6.47-3.2a31.82,31.82,0,0,1-6.69-8.4c-.61-1.2,2.53-9.25,2.58-9.31,1.65-2.3,4.83-5,7.61-5.6,3.53-.72,8.23,1.79,11.67,2.85a3.19,3.19,0,0,1,1.41,1.18c1.59,2.32,3.72,5.66,4,8.46a17.65,17.65,0,0,1-2.13,9.28" transform="translate(-0.06 -0.01)"/><path class="cls-42" d="M133.78,84.45c-3.19,5.88-11.47,7.27-11.54,7.27a6.85,6.85,0,0,1-3.82-1.83c-2.42-2.35-6.54-5.39-7.1-8.72-.48-2.81,1.58-6.58,3.13-9a9.4,9.4,0,0,1,5.17-3.86c3.1-.59,7.21,1.61,10.18,2.69a5.62,5.62,0,0,1,1.9,1.69c2.37,2.69,3.78,8.61,2.07,11.76" transform="translate(-0.06 -0.01)"/><path class="cls-43" d="M133.15,80.5c-1.78,3.34-6,6.46-8.87,9a3.43,3.43,0,0,1-2.16.8c-1.72-.09-8.38-9.15-8.4-9.24-.46-2.85,2-6.48,3.39-9A4.72,4.72,0,0,1,119.86,70a7.78,7.78,0,0,1,5.41,1.47,61.21,61.21,0,0,1,7.49,6.81,2.39,2.39,0,0,1,.39,2.26" transform="translate(-0.06 -0.01)"/><path class="cls-44" d="M121.89,87.72c-2.67-.14-5.36-4.15-5.77-6.8,0-.08,3.41-9.2,4-9.3a.88.88,0,0,1,.61.17c2.81,2.37,9,4.43,9.19,8.11.12,3.35-4.64,8-8,7.82" transform="translate(-0.06 -0.01)"/><path class="cls-45" d="M121.56,84.34c-1.4-.06-2.82-2.16-3-3.55-.27-1.64.46-4.74,2.08-5.12,2-.47,5.12,2.53,5.17,4.6,0,1.76-2.45,4.15-4.21,4.07" transform="translate(-0.06 -0.01)"/><path class="cls-46" d="M121.21,81c-.14,0-.28-.21-.3-.35s0-.47.21-.51.5.25.51.46a.5.5,0,0,1-.42.4" transform="translate(-0.06 -0.01)"/></g></g></g></svg>