<svg xmlns="http://www.w3.org/2000/svg" xmlns:xlink="http://www.w3.org/1999/xlink" viewBox="0 0 199.3 199.81"><defs><style>.cls-1{fill:none}.cls-2{isolation:isolate}.cls-3{clip-path:url(#clip-path)}.cls-4{fill:#a3a300}.cls-5{fill:#9e9e00}.cls-6{fill:#990}.cls-7{fill:#949400}.cls-8{fill:#8f8f00}.cls-9{fill:#8a8a00}.cls-10{fill:#858500}.cls-11{fill:#a8a800}.cls-12{fill:#adad00}.cls-13{fill:#b3b300}.cls-14{fill:#b8b800}.cls-15{fill:#bdbd00}.cls-16{fill:#c2c200}.cls-17{fill:#c7c700}.cls-18{fill:#cc0}.cls-19{fill:#d1d100}.cls-20{fill:#d6d600}.cls-21{fill:#dbdb00}.cls-22{fill:#e0e000}.cls-23{fill:#e6e600}.cls-24{fill:#ebeb00}.cls-25{fill:#f0f000}.cls-26{fill:#f5f500}.cls-27{fill:#fafa00}.cls-28{fill:#ff0}.cls-29{fill:#ffff1f}.cls-30{fill:#ffff2b}.cls-31{fill:#ffff35}.cls-32{fill:#ffff3d}.cls-33{fill:#ff4}.cls-34{fill:#ffff4b}.cls-35{fill:#ffff51}.cls-36{fill:#ffff57}.cls-37{fill:#ffff5c}.cls-38{fill:#ffff61}.cls-39{fill:#ffff65}.cls-40{fill:#ffff6a}.cls-41{fill:#ffff6e}.cls-42{fill:#ffff72}.cls-43{fill:#ff7}.cls-44{fill:#ffff7a}.cls-45{fill:#ffff7e}.cls-46{fill:#ffff82}.cls-47{fill:#ffff85}.cls-48{clip-path:url(#clip-path-2)}</style><clipPath id="clip-path" transform="translate(0 -0.1)"><path d="M.2,99.8a88.33,88.33,0,0,1,.4-8.9c.3-2.4.6-5.6,1-8,.4-2.6,1.2-6,1.8-8.5.6-2.3,1.5-5.3,2.3-7.5.9-2.4,2.2-5.6,3.2-8a73.08,73.08,0,0,1,4-7.9c2.3-3.9,5.7-8.9,8.3-12.5a65.38,65.38,0,0,1,6-7c1.5-1.5,3.5-3.7,5.2-5.1,2.3-2,5.4-4.6,7.8-6.5a111.1,111.1,0,0,1,11.2-7.3,81.45,81.45,0,0,1,10.3-5c2.2-.9,5.1-2,7.3-2.7s5.1-1.5,7.3-2.1,4.9-1.1,6.9-1.4S87.1.8,89,.6A103.19,103.19,0,0,1,100.3,0a87,87,0,0,1,13.6,1.1,45.46,45.46,0,0,1,5.9,1.1c2,.4,4.7,1.1,6.7,1.6,1.5.4,3.5,1,4.9,1.5,2.1.7,4.8,1.8,6.8,2.6,3.1,1.3,7.2,3.4,10.2,5,24.4,13.9,40.5,41.3,40.5,74.9-.1,52.9-40.1,101.2-89.5,108.1h0c49.4-6.9,89.4-55.2,89.5-108.1.1-33.6-16-61-40.5-74.9a80.9,80.9,0,0,1,7.9,5c1.7,1.2,3.9,2.8,5.5,4.1a69.77,69.77,0,0,1,6.5,5.7c1.5,1.6,3.6,3.6,5.1,5.3,1.7,1.9,3.9,4.5,5.4,6.6a98.58,98.58,0,0,1,8.6,13.5,97.21,97.21,0,0,1,6.4,14.8,131.51,131.51,0,0,1,3.8,15.3,86.18,86.18,0,0,1,1.1,8.7c.2,2.4.2,5.7.3,8.1a71.07,71.07,0,0,1-.5,10.3c-.3,2.4-.7,5.6-1.1,7.9-.5,2.6-1.3,5.9-2,8.5-.6,2.3-1.6,5.2-2.4,7.4-.9,2.4-2.3,5.6-3.3,8-.9,2.1-2.4,4.8-3.5,6.8-1.3,2.3-3.2,5.2-4.7,7.5a59.25,59.25,0,0,1-5.7,7.5,110.39,110.39,0,0,1-10.1,10.4c-2.3,2-5.5,4.6-8,6.4-1.6,1.2-3.9,2.7-5.6,3.8s-4.2,2.6-6.1,3.5c-3,1.5-7.1,3.4-10.2,4.7a106.45,106.45,0,0,1-13.2,4.2,88.64,88.64,0,0,1-10.1,1.9c-4.6.6-9.2.8-9.6.8-.6,0-1.5.1-2.2.1H96.4c-3.3-.1-5.7-.3-6.6-.4a72.64,72.64,0,0,1-7.7-1.1c-2.1-.4-2.7-.5-6.4-1.3-3.5-.8-8.3-2.4-8.3-2.4-2.1-.8-4.8-1.8-6.8-2.6-1.6-.6-3.6-1.6-5.1-2.3-2.5-1.3-5.9-3.1-8.3-4.6-3.4-2.2-7.8-5.3-11-7.9-2.2-1.7-4.9-4.3-6.9-6.2-1.8-1.8-4.2-4.3-5.8-6.3-2.8-3.5-6.3-8.4-8.8-12.1a60.39,60.39,0,0,1-4.2-7.5c-1.1-2.3-2.6-5.3-3.5-7.7a151.62,151.62,0,0,1-4.7-14.9A140.86,140.86,0,0,1,.1,107.9C.2,105.6.2,102.3.2,99.8Z" class="cls-1"/></clipPath><clipPath id="clip-path-2" transform="translate(0 -0.1)"><path d="M50.8,186.9c-1.7-1-4-2.3-5.7-3.5-2.6-1.8-6-4.3-8.5-6.3a124,124,0,0,1-10.5-10,84.22,84.22,0,0,1-6.1-7.3c-1.5-2.2-3.6-5-5-7.3-1.2-1.9-2.7-4.6-3.8-6.6-1.2-2.3-2.6-5.4-3.6-7.8-.9-2.2-1.9-5.1-2.7-7.3a60.07,60.07,0,0,1-2.3-8.3A139.84,139.84,0,0,1,.3,106.7a93.91,93.91,0,0,1,.1-15c.3-2.6.6-6.1,1.1-8.7.5-2.3,1.1-5.4,1.6-7.7a59.57,59.57,0,0,1,2.5-8.2c.8-2.2,1.9-5.1,2.8-7.2a78.51,78.51,0,0,1,3.8-7.7c1.1-2,2.6-4.6,3.9-6.5a70.76,70.76,0,0,1,5.1-7.1A125.58,125.58,0,0,1,31,27.8c1.9-1.8,4.5-4.1,6.6-5.8,1.6-1.3,3.8-2.9,5.5-4.1,2.3-1.5,5.4-3.5,7.7-4.9A51.22,51.22,0,0,1,56,10.3c1.5-.7,3.6-1.7,5.2-2.4,1.3-.5,3-1.2,4.3-1.7,2.2-.8,5.1-1.8,7.4-2.4A104.59,104.59,0,0,1,91.6.4a98.14,98.14,0,0,1,19.9.4c4.6.6,8.1,1.3,8.1,1.3,2,.4,4.7,1.1,6.7,1.6,1.3.4,3.1.9,4.4,1.3a106.33,106.33,0,0,1,10.1,4c2.4,1.1,5.4,2.7,7.7,4A77.31,77.31,0,0,0,99.8,3.9c18-2.3,34.7,1.2,48.7,9.1h0a122.92,122.92,0,0,1,11.3,7.5c2.3,1.8,5.2,4.3,7.4,6.2,1.6,1.5,3.7,3.5,5.2,5.2,1.8,2,4.2,4.8,5.9,6.9,1.4,1.8,3.1,4.2,4.4,6.1,1.4,2.2,3.2,5.2,4.5,7.5,1.1,2,2.4,4.8,3.4,6.9,1.1,2.3,2.3,5.6,3.2,8,.8,2.2,1.6,5.2,2.3,7.5a61.15,61.15,0,0,1,1.8,8.5c.3,2.4.8,5.6,1,8,.2,2.7.4,6.2.4,8.9a124.77,124.77,0,0,1-1.3,16.1,65.77,65.77,0,0,1-2.1,9.8c-.7,2.2-1.5,5.3-2.3,7.5-.9,2.4-2.1,5.6-3.2,7.9-1,2.1-2.3,4.8-3.4,6.8-1.2,2.2-3,5.1-4.4,7.2a95.55,95.55,0,0,1-10,12.6,101.58,101.58,0,0,1-11.8,10.8c-1.6,1.2-3.8,2.9-5.5,4-2.3,1.5-5.4,3.4-7.8,4.8a95.43,95.43,0,0,1-11.3,5.3c-2.1.8-5,1.9-7.2,2.5s-5,1.4-7.1,1.9a99.06,99.06,0,0,1-36.4,1.5,86.13,86.13,0,0,1-16.7-4,94.88,94.88,0,0,1-10.1-4A72.81,72.81,0,0,1,50.8,186.9Z" class="cls-1"/></clipPath></defs><title>ball_yellow</title><g id="Layer_2" data-name="Layer 2"><g id="Layer_1-2" data-name="Layer 1"><g class="cls-2"><g class="cls-2"><g class="cls-3"><g class="cls-2"><path d="M.2,99.8A102.32,102.32,0,0,0,4.8,130c4.6,14.2,9.6,21.6,14.5,28.8,3.6,5.3,17.3,23.3,44.3,34.2,30.2,12.3,75.2,9.8,107.5-23.6,12.7-13.2,33.1-41.7,26.8-85.4-2-13.8-10.8-48.4-49.4-71C172.9,26.9,189,54.3,189,87.9c-.1,52.9-40.1,101.2-89.5,108.1h0c49.4-6.9,89.4-55.2,89.5-108.1.1-33.6-16-61-40.5-74.9C141.2,9.2,124.3.1,100.4.1a98.53,98.53,0,0,0-49,12.6C34.2,22.8,23.1,33.9,12.9,51.1,4.9,64.7-.1,83.9.2,99.8" class="cls-4" transform="translate(0 -0.1)"/><path d="M189,88c-.1,44-27.8,84.9-65.6,101.3h0c-4,2.1-9.6,5-16,5.3-2.6.6-5.2,1.1-7.9,1.5,2.7-.4,5.3-.9,7.9-1.5l.4-.4c.7-.3,1.7-.7,2.5-1.1-36.4,3.4-36.4,3.4-50.2-2-7.1-2.7-25.5-11.5-41.4-33.3C-3,128.2-4.5,88.2,15.1,62.7,57.7,7.4,144.9,50,155.6,114.9c6.3,38.1-12.5,63.4-32.2,74.4C161.2,172.9,188.9,132,189,88c.1-33.6-16-61-40.5-74.9l-5.1-2.7c-2.3-1.1-5.4-2.5-7.7-3.4l-4.2-1.5C130,5,128.1,4.4,126.6,4l-3.3-1c-1.1-.2-2.5-.6-3.6-.8l-2.8-.5a27.41,27.41,0,0,1-2.8-.5L111.6.9c-.7-.1-1.7-.2-2.4-.3L107,.4c-.7,0-1.6-.1-2.2-.1L102.7.2H98.5a17,17,0,0,0-2.2.1L94.1.4a17.85,17.85,0,0,0-2.3.2L89.3.8l-2.6.3-3.2.5A101.81,101.81,0,0,0,62,7.8L56.6,10a95.58,95.58,0,0,0-10.8,6.1L40.2,20c-2.4,1.9-5.5,4.5-7.8,6.5l-5.2,5.1c-1.8,2.1-4.3,4.8-6,7l-4.4,6.1c-1.4,2.2-3.3,5.2-4.5,7.5L8.9,59c-1,2.4-2.3,5.6-3.2,8L3.4,74.5C2.8,77,2,80.4,1.6,83l-1,8C.5,93.7.2,97.2.2,99.9L.5,108c.5,4.4,1.4,10.2,2.2,14.5l2.1,7.6c.9,2.4,1.9,5.7,2.9,8l3.2,7c1.2,2.2,2.9,5.3,4.2,7.5l4.2,6.3c1.6,2.1,3.8,4.9,5.5,6.8l5,5.3c2,1.9,4.7,4.4,6.9,6.2l5.4,4.1c2.6,1.7,6.1,4,8.8,5.6l5.1,2.7c2.3,1.1,5.4,2.5,7.7,3.4l4.2,1.5c1.5.5,3.4,1.1,4.9,1.5l3.4.9c1.1.2,2.5.6,3.6.8l2.8.5a27.41,27.41,0,0,1,2.8.5l2.5.3c.7.1,1.7.2,2.4.3l2.2.2c.7,0,1.6.1,2.2.1l2.1.1H101a17,17,0,0,0,2.2-.1l2.2-.1a17.85,17.85,0,0,0,2.3-.2l2.5-.2,2.6-.3,3.2-.5a105.68,105.68,0,0,0,20-5.6l5.1-2.2c6.5-3.3,7.1-3.5,11.2-6.1l5.6-3.8c2.4-1.9,5.7-4.4,8-6.4l5.2-5c1.9-2.1,4.4-4.8,6.1-6.9l4.5-6c1.4-2.2,3.3-5.2,4.7-7.5l3.5-6.8c1-2.4,2.4-5.6,3.3-8l2.4-7.4c.6-2.5,1.5-5.9,2-8.5l1.1-7.9c.2-3.1.5-7.2.5-10.3l-.3-8.1c-.3-2.6-.6-6.1-1.1-8.7l-1.6-7.8c-.7-2.5-1.6-5.8-2.4-8.2L191,59.9c-1.1-2.3-2.5-5.4-3.7-7.7l-3.9-6.5c-1.5-2.1-3.4-5-5-7.1l-4.7-5.7c-1.9-1.9-4.4-4.6-6.3-6.4L162.2,22c-7-5.2-7.7-5.8-13.4-9.2C173,26.9,189.1,54.4,189,88" class="cls-4" transform="translate(0 -0.1)"/><path d="M4.3,128.4C-15.1,59,48.5,11,112.3,46.8,159,73,179.8,143,137.9,181.4c30.2-19.5,51-55.3,51.1-93.5.1-33.6-16-61-40.5-74.9l-5.1-2.7c-2.3-1.1-5.4-2.5-7.7-3.4l-4.2-1.5c-1.5-.5-3.4-1.1-4.9-1.5L123.3,3c-1.1-.2-2.5-.6-3.6-.8l-2.8-.5a27.41,27.41,0,0,1-2.8-.5L111.6.9c-.7-.1-1.7-.2-2.4-.3L107,.4c-.7,0-1.6-.1-2.2-.1L102.7.2H98.5a17,17,0,0,0-2.2.1L94.1.4a17.85,17.85,0,0,0-2.3.2L89.3.8l-2.6.3-3.2.5A101.81,101.81,0,0,0,62,7.8L56.6,10a95.58,95.58,0,0,0-10.8,6.1L40.2,20c-2.4,1.9-5.5,4.5-7.8,6.5l-5.2,5.1c-1.8,2.1-4.3,4.8-6,7l-4.4,6.1c-1.4,2.2-3.3,5.2-4.5,7.5L8.9,59c-1,2.4-2.3,5.6-3.2,8L3.4,74.5C2.8,77,2,80.4,1.6,83l-1,8C.5,93.7.2,97.2.2,99.9L.5,108c.5,4.4,1.4,10.2,2.2,14.5l2.1,7.6,2.1,6L4.5,129a1.42,1.42,0,0,1-.2-.6" class="cls-5" transform="translate(0 -0.1)"/><path d="M189,88c-.1,38.2-20.9,73.9-51.1,93.5h0c-14.4,12.4-20.5,12.7-31.6,13.4-2.2.5-4.5.9-6.8,1.2,2.3-.3,4.5-.7,6.8-1.2.1-.1.3-.2.4-.3-2.1-1-2.1-1-18.5,3.4-.1,0-15.5,1.7-40.9-13.1,2.5,1.5,6,3.4,8.6,4.8,2.3,1.1,5.4,2.5,7.7,3.4l4.2,1.5c1.5.5,3.4,1.1,4.9,1.5l3.4.9c1.1.2,2.5.6,3.6.8l2.8.5a27.41,27.41,0,0,1,2.8.5l2.5.3c.7.1,1.7.2,2.4.3l2.2.2c.7,0,1.6.1,2.2.1l2.1.1h4.2a17,17,0,0,0,2.2-.1l2.2-.1a17.85,17.85,0,0,0,2.3-.2l2.5-.2,2.6-.3,3.2-.5a105.68,105.68,0,0,0,20-5.6l5.1-2.2c6.5-3.3,7.1-3.5,11.2-6.1l5.6-3.8c2.4-1.9,5.7-4.4,8-6.4l5.2-5c1.9-2.1,4.4-4.8,6.1-6.9l4.5-6c1.4-2.2,3.3-5.2,4.7-7.5l3.5-6.8c1-2.4,2.4-5.6,3.3-8l2.4-7.4c.6-2.5,1.5-5.9,2-8.5l1.1-7.9c.2-3.1.5-7.2.5-10.3l-.3-8.1c-.3-2.6-.6-6.1-1.1-8.7l-1.6-7.8c-.7-2.5-1.6-5.8-2.4-8.2L190.9,60c-1.1-2.3-2.5-5.4-3.7-7.7l-3.9-6.5c-1.5-2.1-3.4-5-5-7.1L173.6,33c-1.9-1.9-4.4-4.6-6.3-6.4l-5.2-4.5c-7-5.2-7.7-5.8-13.4-9.2C173,26.9,189.1,54.4,189,88" class="cls-5" transform="translate(0 -0.1)"/><path d="M1.4,115.6C-8.1,35.9,72.9,7.5,128,52.7c28.3,23.2,53.5,75.9,20.9,120.6,24.1-20.5,40-52,40.1-85.3.1-33.6-16-61-40.5-74.9l-5.1-2.7c-2.3-1.1-5.4-2.5-7.7-3.4l-4.2-1.5C130,5,128.1,4.4,126.6,4l-3.3-1c-1.1-.2-2.5-.6-3.6-.8l-2.8-.5a27.41,27.41,0,0,1-2.8-.5L111.6.9c-.7-.1-1.7-.2-2.4-.3L107,.4c-.7,0-1.6-.1-2.2-.1L102.7.2H98.5a17,17,0,0,0-2.2.1L94.1.4a17.85,17.85,0,0,0-2.3.2L89.3.8l-2.6.3-3.2.5A101.81,101.81,0,0,0,62,7.8L56.6,10a95.58,95.58,0,0,0-10.8,6.1L40.2,20c-2.4,1.9-5.5,4.5-7.8,6.5l-5.2,5.1c-1.8,2.1-4.3,4.8-6,7l-4.4,6.1c-1.4,2.2-3.3,5.2-4.5,7.5L8.9,59c-1,2.4-2.3,5.6-3.2,8L3.4,74.5C2.8,77,2,80.4,1.6,83l-1,8C.5,93.7.2,97.2.2,99.9L.5,108c.3,2.7.7,6.4,1.1,9.2l-.2-1.6" class="cls-6" transform="translate(0 -0.1)"/><path d="M189,88c-.1,33.3-16,64.8-40.1,85.3h0c-15.5,20.4-29.2,21.1-43.8,21.8-1.9.4-3.8.7-5.7,1,1.9-.3,3.8-.6,5.7-1l.3-.3c-4.5-1.5-13,0-12.9,1.7.1.7,1.7,1.2,2.7,1.4-7.3,3.4-28.8-3.8-29-3.9l4.1,1.4,2.3.7,3.4.9c1.1.2,2.5.6,3.6.8l2.8.5a27.41,27.41,0,0,1,2.8.5l2.5.3c.7.1,1.7.2,2.4.3l2.2.2c.7,0,1.6.1,2.2.1l2.1.1h4.2a17,17,0,0,0,2.2-.1l2.2-.1a17.85,17.85,0,0,0,2.3-.2l2.5-.2,2.6-.3,3.2-.5a105.68,105.68,0,0,0,20-5.6l5.1-2.2c6.5-3.3,7.1-3.5,11.2-6.1l5.6-3.8c2.4-1.9,5.7-4.4,8-6.4l5.2-5c1.9-2.1,4.4-4.8,6.1-6.9l4.5-6c1.4-2.2,3.3-5.2,4.7-7.5l3.5-6.8c1-2.4,2.4-5.6,3.3-8l2.4-7.4c.6-2.5,1.5-5.9,2-8.5l1.1-7.9c.2-3.1.5-7.2.5-10.3l-.3-8.1c-.3-2.6-.6-6.1-1.1-8.7L196,75.4c-.7-2.5-1.6-5.8-2.4-8.2L190.8,60c-1.1-2.3-2.5-5.4-3.7-7.7l-3.9-6.5c-1.5-2.1-3.4-5-5-7.1L173.5,33c-1.9-1.9-4.4-4.6-6.3-6.4L162,22.1c-7-5.2-7.7-5.8-13.4-9.2C173,26.9,189.1,54.4,189,88" class="cls-6" transform="translate(0 -0.1)"/><path d="M.2,99.8c4-85,95.7-89.9,140.4-41.2,28.8,31.3,35.9,73.9,17.7,105.9,18.8-20.1,30.7-47.6,30.8-76.4.1-33.6-16-61-40.5-74.9h0a103,103,0,0,0-12.8-6.1l-4.2-1.5c-1.5-.5-3.4-1.1-4.9-1.5L123.3,3c-1.1-.2-2.5-.6-3.6-.8l-2.8-.5a27.41,27.41,0,0,1-2.8-.5L111.6.9c-.7-.1-1.7-.2-2.4-.3L107,.4c-.7,0-1.6-.1-2.2-.1L102.7.2H98.5a17,17,0,0,0-2.2.1L94.1.4a17.85,17.85,0,0,0-2.3.2L89.3.8l-2.6.3-3.2.5A101.81,101.81,0,0,0,62,7.8L56.6,10a95.58,95.58,0,0,0-10.8,6.1L40.2,20c-2.4,1.9-5.5,4.5-7.8,6.5l-5.2,5.1c-1.8,2.1-4.3,4.8-6,7l-4.4,6.1c-1.4,2.2-3.3,5.2-4.5,7.5L8.9,59c-1,2.4-2.3,5.6-3.2,8L3.4,74.5C2.8,77,2,80.4,1.6,83l-1,8C.4,93.6.2,97.2.2,99.8h0" class="cls-7" transform="translate(0 -0.1)"/><path d="M189,88c-.1,28.8-12,56.3-30.8,76.4h0c-23,40-64.3,36-76.4,33.9l2.8.5.7.1,2.5.3c.7.1,1.7.2,2.4.3l2.2.2c.7,0,1.6.1,2.2.1l2.1.1h4.2a17,17,0,0,0,2.2-.1l2.2-.1a17.85,17.85,0,0,0,2.3-.2l2.5-.2,2.6-.3,3.2-.5a105.68,105.68,0,0,0,20-5.6l5.1-2.2c6.5-3.3,7.1-3.5,11.2-6.1l5.6-3.8c2.4-1.9,5.7-4.4,8-6.4l5.2-5c1.9-2.1,4.4-4.8,6.1-6.9l4.5-6c1.4-2.2,3.3-5.2,4.7-7.5l3.5-6.8c1-2.4,2.4-5.6,3.3-8l2.4-7.4c.6-2.5,1.5-5.9,2-8.5l1.1-7.9c.2-3.1.5-7.2.5-10.3l-.3-8.1c-.3-2.6-.6-6.1-1.1-8.7l-1.6-7.8c-.7-2.5-1.6-5.8-2.4-8.2l-2.8-7.2c-1.1-2.3-2.5-5.4-3.7-7.7l-3.9-6.5c-1.5-2.1-3.4-5-5-7.1l-4.7-5.7c-1.9-1.9-4.4-4.6-6.3-6.4l-5.2-4.5c-7-5.2-7.7-5.8-13.4-9.2C173,26.9,189.1,54.4,189,88" class="cls-7" transform="translate(0 -0.1)"/><path d="M2.4,79.3c17-72.6,113.3-75.5,156.1-4.7,15.2,25.1,18.3,55.7,8.1,79.8,14-18.8,22.5-42.1,22.5-66.5.1-33.6-16-61-40.5-74.9l-5.1-2.7c-2.3-1.1-5.4-2.5-7.7-3.4l-4.2-1.5c-1.5-.5-3.4-1.1-4.9-1.5L123.3,3c-1.1-.2-2.5-.6-3.6-.8l-2.8-.5a27.41,27.41,0,0,1-2.8-.5L111.6.9c-.7-.1-1.7-.2-2.4-.3L107,.4c-.7,0-1.6-.1-2.2-.1L102.7.2H98.5a17,17,0,0,0-2.2.1L94.1.4a17.85,17.85,0,0,0-2.3.2L89.3.8l-2.6.3-3.2.5A101.81,101.81,0,0,0,62,7.8L56.6,10a95.58,95.58,0,0,0-10.8,6.1L40.2,20c-2.4,1.9-5.5,4.5-7.8,6.5l-5.2,5.1c-1.8,2.1-4.3,4.8-6,7l-4.4,6.1c-1.4,2.2-3.3,5.2-4.5,7.5L8.9,59c-1,2.4-2.3,5.6-3.2,8L3.4,74.5C2.8,77,2,80.4,1.6,83c-.1.8-.3,1.8-.4,2.5.4-1.8.8-4.4,1.2-6.2" class="cls-8" transform="translate(0 -0.1)"/><path d="M189,88c0,24.3-8.5,47.7-22.5,66.5h0c-7.8,23-32.3,46-69.3,45.4H101a17,17,0,0,0,2.2-.1l2.2-.1a17.85,17.85,0,0,0,2.3-.2l2.5-.2,2.6-.3,3.2-.5a105.68,105.68,0,0,0,20-5.6l5.1-2.2c6.5-3.3,7.1-3.5,11.2-6.1l5.6-3.8c2.4-1.9,5.7-4.4,8-6.4l5.2-5c1.9-2.1,4.4-4.8,6.1-6.9l4.5-6c1.4-2.2,3.3-5.2,4.7-7.5l3.5-6.8c1-2.4,2.4-5.6,3.3-8l2.4-7.4c.6-2.5,1.5-5.9,2-8.5l1.1-7.9c.2-3.1.5-7.2.5-10.3l-.3-8.1c-.3-2.6-.6-6.1-1.1-8.7l-1.6-7.8c-.7-2.5-1.6-5.8-2.4-8.2L191,60.1c-1.1-2.3-2.5-5.4-3.7-7.7l-3.9-6.5c-1.5-2.1-3.4-5-5-7.1l-4.7-5.7c-1.9-1.9-4.4-4.6-6.3-6.4l-5.2-4.5c-7-5.2-7.7-5.8-13.4-9.2C173,26.9,189.1,54.4,189,88" class="cls-8" transform="translate(0 -0.1)"/><path d="M5.1,69C34.3-8.4,133.6,9.5,167.2,79.8c6.9,14.4,13.7,37,6.9,63A110.7,110.7,0,0,0,189,87.9c.1-33.6-16-61-40.5-74.9l-5.1-2.7c-2.3-1.1-5.4-2.5-7.7-3.4l-4.2-1.5c-1.5-.5-3.4-1.1-4.9-1.5L123.3,3c-1.1-.2-2.5-.6-3.6-.8l-2.8-.5a27.41,27.41,0,0,1-2.8-.5L111.6.9c-.7-.1-1.7-.2-2.4-.3L107,.4c-.7,0-1.6-.1-2.2-.1L102.7.2H98.5a17,17,0,0,0-2.2.1L94.1.4a17.85,17.85,0,0,0-2.3.2L89.3.8l-2.6.3-3.2.5A101.81,101.81,0,0,0,62,7.8L56.6,10a95.58,95.58,0,0,0-10.8,6.1L40.2,20c-2.4,1.9-5.5,4.5-7.8,6.5l-5.2,5.1c-1.8,2.1-4.3,4.8-6,7l-4.4,6.1c-1.4,2.2-3.3,5.2-4.5,7.5L8.9,59c-1,2.4-2.3,5.6-3.2,8l-1,3a10.37,10.37,0,0,0,.4-1" class="cls-9" transform="translate(0 -0.1)"/><path d="M189,88a111.27,111.27,0,0,1-14.9,54.9h0c-6.6,30-29.9,51.5-60.8,56.1l3.2-.5A103,103,0,0,0,136,193l5.1-2.2c6.5-3.3,7.1-3.5,11.2-6.1l5.6-3.8c2.4-1.9,5.7-4.4,8-6.4l5.2-5c1.9-2.1,4.4-4.8,6.1-6.9l4.5-6c1.4-2.2,3.3-5.2,4.7-7.5l3.5-6.8c1-2.4,2.4-5.6,3.3-8l2.4-7.4c.6-2.5,1.5-5.9,2-8.5l1.1-7.9c.2-3.1.5-7.2.5-10.3l-.3-8.1c-.3-2.6-.6-6.1-1.1-8.7l-1.6-7.8c-.7-2.5-1.6-5.8-2.4-8.2L191,60.2c-1.1-2.3-2.5-5.4-3.7-7.7L183.4,46c-1.5-2.1-3.4-5-5-7.1l-4.7-5.7c-1.9-1.9-4.4-4.6-6.3-6.4l-5.2-4.5c-7-5.2-7.7-5.8-13.4-9.2C173,26.9,189.1,54.4,189,88" class="cls-9" transform="translate(0 -0.1)"/><path d="M16.2,45.8c47.1-67.5,150.7-21,164,54.7,1.9,10.6,2.5,14.1,1,27.5A110.39,110.39,0,0,0,189,88c.1-33.6-16-61-40.5-74.9l-5.1-2.7c-2.3-1.1-5.4-2.5-7.7-3.4l-4.2-1.5C130,5,128.1,4.4,126.6,4l-3.3-1c-1.1-.2-2.5-.6-3.6-.8l-2.8-.5a27.41,27.41,0,0,1-2.8-.5L111.6.9c-.7-.1-1.7-.2-2.4-.3L107,.4c-.7,0-1.6-.1-2.2-.1L102.7.2H98.5a17,17,0,0,0-2.2.1L94.1.4a17.85,17.85,0,0,0-2.3.2L89.3.8l-2.6.3-3.2.5A101.81,101.81,0,0,0,62,7.8L56.6,10a95.58,95.58,0,0,0-10.8,6.1L40.2,20c-2.4,1.9-5.5,4.5-7.8,6.5l-5.2,5.1c-1.8,2.1-4.3,4.8-6,7l-4.4,6.1c-1.4,2.2-3.3,5.2-4.5,7.5l2.8-4.7a16.29,16.29,0,0,0,1.1-1.7" class="cls-10" transform="translate(0 -0.1)"/><path d="M189,88a108.33,108.33,0,0,1-7.8,40h0c-.6,30.2-22.1,57.9-52.2,67.4l3.6-1.2,3.4-1.3,5.1-2.2c6.5-3.3,7.1-3.5,11.2-6.1l5.6-3.8c2.4-1.9,5.7-4.4,8-6.4l5.2-5c1.9-2.1,4.4-4.8,6.1-6.9l4.5-6c1.4-2.2,3.3-5.2,4.7-7.5l3.5-6.8c1-2.4,2.4-5.6,3.3-8l2.4-7.4c.6-2.5,1.5-5.9,2-8.5l1.1-7.9c.2-3.1.5-7.2.5-10.3l-.3-8.1c-.3-2.6-.6-6.1-1.1-8.7l-1.6-7.8c-.7-2.5-1.6-5.8-2.4-8.2L191,60.1c-1.1-2.3-2.5-5.4-3.7-7.7l-3.9-6.5c-1.5-2.1-3.4-5-5-7.1l-4.7-5.7c-1.9-1.9-4.4-4.6-6.3-6.4l-5.2-4.5c-7-5.2-7.7-5.8-13.4-9.2C173,26.9,189.1,54.4,189,88" class="cls-10" transform="translate(0 -0.1)"/><path d="M83,196c35.5-5.8,35.5-5.8,44.6-12,9.8-6.6,20-21.9,22.9-33.9,13-54.7-30-88-34.9-91.6C57.3,15.6-5.5,58.5,2.7,117c8.6,61.1,66.9,81.2,80.3,79" class="cls-11" transform="translate(0 -0.1)"/><path d="M72.2,193.7c4.8,1,47.7,8.4,69-29.4,13.3-23.5,10.6-55.2-6.8-80.8C96.5,28,19.2,32.7,5.1,91.2-6.4,139,31.7,185.6,72.2,193.7" class="cls-12" transform="translate(0 -0.1)"/><path d="M63.1,190.3c60.5,19,104.8-40,72.8-97.2C100.3,29.2,20.6,37.3,6.7,91.3c-11.6,45,19.8,87.5,56.4,99" class="cls-13" transform="translate(0 -0.1)"/><path d="M50.9,184.1c52,27.1,105.1-16,88.8-72-20-68.7-101.6-79-127.2-30.5-18.2,34.5-.2,82.4,38.4,102.5" class="cls-14" transform="translate(0 -0.1)"/><path d="M46.7,180.7c52.4,29.9,105.1-10.7,89.4-69C122,59.2,46.5,31.5,15.8,80.7c-21.7,34.7-1.6,81.5,30.9,100" class="cls-15" transform="translate(0 -0.1)"/><path d="M41,175.7c47.8,32.7,101.2,1.3,93.7-55-7.6-57.3-83-84.3-115.3-41.2-23.1,30.8-7.7,76.2,21.6,96.2" class="cls-16" transform="translate(0 -0.1)"/><path d="M40.1,173.6c49.4,35.7,100-2.8,91.6-53.3-10-59.6-87.2-75.6-112.4-36.2-20,31.5-4.8,71,20.8,89.5" class="cls-17" transform="translate(0 -0.1)"/><path d="M40.9,172.4c50.9,36.3,96.1-8.5,87.7-52.5-11.3-59-84-71.6-109.1-31C3.4,115,12.8,151.6,40.9,172.4" class="cls-18" transform="translate(0 -0.1)"/><path d="M35,165.5c44.3,40.5,92.3,5.9,91.3-36.9C125,70.4,56.3,54.1,28,83c-23.6,24-15.4,62.1,7,82.5" class="cls-19" transform="translate(0 -0.1)"/><path d="M36.3,164.4c42,38.2,93,3.3,87-44.9-5.7-46.4-71.6-65.6-97.9-28.6C7.6,116,17.7,147.5,36.3,164.4" class="cls-20" transform="translate(0 -0.1)"/><path d="M38,163.2c42.7,37.7,89-2.9,83.3-43.9C115.2,75.8,54.5,58,28.4,92.1,8.8,118,22.2,149.3,38,163.2" class="cls-21" transform="translate(0 -0.1)"/><path d="M33.6,155.5c34.6,40.8,83.5,11.3,85.8-27.4,2.6-44.2-54.3-65.7-82-40.4-27.2,25-14.4,55.3-3.8,67.8" class="cls-22" transform="translate(0 -0.1)"/><path d="M35.9,154.3c32.3,37.1,78.9,9.3,81.4-26.4C120,90.3,71.9,60.8,38.8,90.5c-22.6,20.3-15.3,49.6-2.9,63.8" class="cls-23" transform="translate(0 -0.1)"/><path d="M38.7,153.1c29.9,33.7,73.8,7.5,76.5-25.3,2-24.2-15.5-38.5-26.1-43.1C76.8,79.3,58,76.6,38.9,94.5c-11.7,10.9-18.5,38-.2,58.6" class="cls-24" transform="translate(0 -0.1)"/><path d="M41.9,151.9c26.9,27.9,68,8.8,71.2-24.1,3.7-37-40.1-58.9-68.9-34.5-19.3,16.4-16.8,43.5-2.3,58.6" class="cls-25" transform="translate(0 -0.1)"/><path d="M39.6,143.5c21.5,32.7,68.1,17.1,72-15.8C115.6,95,78.8,73.1,50.2,91c-16.7,10.5-21.7,35.5-10.6,52.5" class="cls-26" transform="translate(0 -0.1)"/><path d="M43,142.5c19.2,28.3,62.6,18.7,67.3-14.9,2.1-15.1-5.6-28.8-21-37.6-4.2-2.4-19.5-9.3-38.8,3.5-9.6,6.2-22,27.7-7.5,49" class="cls-27" transform="translate(0 -0.1)"/><path d="M45.7,141.7c14.3,18.4,35.8,14.2,38.2,13.6.2,0,21.4-6.1,24.9-27.8,4.9-30.8-35.3-52.8-58.2-31.7-17.3,16-12.4,36.3-4.9,45.9" class="cls-28" transform="translate(0 -0.1)"/><path d="M48.6,141c20,24.1,54.1,12.2,58.7-13.5C112,101.2,80,79.7,57,93.7c-26,15.9-13,41.8-8.4,47.3" class="cls-29" transform="translate(0 -0.1)"/><path d="M99.5,196.1c1.5-.2,3-.5,4.5-.8h0c.1-.1.3-.2.4-.4-5.5-.9-11.4.4-10.3,1.8,1.5,2,13,1.7,13.1-.4.1-1.2-2.4-1.1-3.2-1.1-1.5.4-3,.6-4.5.9" class="cls-7" transform="translate(0 -0.1)"/><path d="M49.1,137c7.6,11.9,19.4,16.8,34,14.4,9-1.5,20.2-11.1,22.8-23.9,2.4-12.1-4.4-25.6-16.5-32.8-.3-.2-13.1-4.1-13.3-4.1-12.5,1-12.5,1-20.8,6.8-15.2,10.5-14,27.4-6.2,39.6" class="cls-30" transform="translate(0 -0.1)"/><path d="M53.4,140c8.9,9.2,24.3,11.8,29.4,9.7,12.1-5.1,12.1-5.1,18.2-13.8,2.1-2.9,4.7-9.9,3.7-17.3C101.9,98.9,85.1,94.4,76.1,92c-3.8-1-9.4.2-12.9,1.9-.1,0-11.4,7.6-13.1,10.2-12.4,19.3,2.6,35.3,3.3,35.9" class="cls-31" transform="translate(0 -0.1)"/><path d="M49.9,131.8c3.5,6.8,12.4,18,32.5,16.3,6-.5,18.3-10.1,20.4-20.7,3.3-16.2-9.4-26.6-9.9-27-6.6-5.3-16.8-7.1-16.9-7.1-3.9-.6-9.3.5-12.9,2.1a33.22,33.22,0,0,0-10.7,8.3c-1,1.2-5.1,10.1-5.2,10.2.1.1-1.7,9.5,2.7,17.9" class="cls-32" transform="translate(0 -0.1)"/><path d="M99.5,196.1c1.1-.2,2.3-.3,3.4-.5.1,0,.1-.1.2-.1l.1-.1c-4.1-.7-8.6.2-7.8,1.3,1.1,1.5,9.8,1.3,9.9-.3.1-.9-1.8-.8-2.4-.8-1.1.1-2.3.3-3.4.5" class="cls-8" transform="translate(0 -0.1)"/><path d="M51.6,131.5c2.2,3.9,10.8,16.6,30.5,15a18.14,18.14,0,0,0,9.5-4.1c5.3-5.2,8.1-8,9.8-14.9,2.8-11.5-3.4-21.5-10.3-27-4.4-3.5-14.9-5.9-15-5.9-3.9-.5-9.3.7-12.8,2.3-11.7,5.2-19.5,20.7-11.7,34.6" class="cls-33" transform="translate(0 -0.1)"/><path d="M53.3,131.2s6.2,7.3,6.7,7.7c3.2,2.3,8.2,4.1,11.7,5.8,2.7,1.3,7,.4,10,.2a18,18,0,0,0,9.7-4.1c4.5-4.3,7.4-8.7,8.6-13.3s2.7-16.3-10.6-26.8c-3.3-2.6-9-4.4-13.2-4.7a29.85,29.85,0,0,0-12.8,2.5c-6.6,2.9-19.4,17.1-10.1,32.7" class="cls-34" transform="translate(0 -0.1)"/><path d="M55,130.9c3.1,5.2,10.7,13.8,26.5,12.6a19.05,19.05,0,0,0,9.8-4.4,31.78,31.78,0,0,0,7.3-11.6c2.6-8.9-1-18.7-9.2-25.2-1.3-1-11.5-5-13.2-5.1-3.9-.4-9.2,1.1-12.7,2.7-.1,0-19.4,12.7-8.5,31" class="cls-35" transform="translate(0 -0.1)"/><path d="M99.5,196.1l2.3-.3.1-.1a.1.1,0,0,1,.1-.1c-2.8-.5-5.7.2-5.2.9.7,1.1,6.5.9,6.6-.2,0-.6-1.2-.6-1.6-.6-.8.1-1.5.3-2.3.4" class="cls-9" transform="translate(0 -0.1)"/><path d="M56.8,130.6c3.5,5.9,10.4,9.1,14.1,10.8,2.8,1.3,7.3.9,10.5.7a18.82,18.82,0,0,0,9.9-4.8c2.4-2.2,6.1-9.8,6.1-9.9,3-9.7-2.7-19.5-7.7-23.5a30.42,30.42,0,0,0-13.2-5.6c-3.9-.4-9.1,1.2-12.6,2.9-2.5,1.2-9.2,11.4-9.2,11.4-1.3,4.9-2.6,10.2,2.1,18" class="cls-36" transform="translate(0 -0.1)"/><path d="M58.4,130.3a35,35,0,0,0,12,9.4c2.9,1.3,7.5,1.2,10.7.9l10-5.2c2.1-1.9,3.9-5.4,4.8-8.1,3.7-11.1-4.2-20.2-6.3-21.8-1.8-1.4-11.5-5.8-13.1-5.9-.8-.1-11.9,2.8-12.6,3.2-3.1,2.1-6.9,6-7.7,9.6-1,5.4-2.2,11.5,2.2,17.9" class="cls-37" transform="translate(0 -0.1)"/><path d="M60.1,130.1c0,.1,8.1,7.2,9.9,8,3,1.3,7.6,1.4,10.8,1.2,1.1-.1,8.1-4.1,10.1-5.8a14,14,0,0,0,3.5-6,19.32,19.32,0,0,0-4.8-20.3c-.1-.1-12.5-6.3-13.1-6.3-.4,0-12,3.4-12.4,3.7-6.5,4.4-10.8,16.4-4,25.5" class="cls-38" transform="translate(0 -0.1)"/><path d="M61.7,129.8a22,22,0,0,0,7.8,6.4,25.18,25.18,0,0,0,10.9,1.6c.1,0,10.5-3.7,12.7-10.4,3.1-9.4-2.5-17.9-3.4-18.6-3.5-2.6-8.7-6.1-13.1-6.5-3.9-.4-9.2,1.7-12.3,3.9-6,4.3-8.4,16-2.6,23.6" class="cls-39" transform="translate(0 -0.1)"/><path d="M99.5,196.1c.4-.1.8-.1,1.1-.2h.1c-1.4-.3-2.9.1-2.6.5s3.3.5,3.3-.1c0-.3-.6-.3-.8-.3a2.16,2.16,0,0,0-1.1.1" class="cls-10" transform="translate(0 -0.1)"/><path d="M63.4,129.6a15.57,15.57,0,0,0,5.6,4.6c3.2,1.3,8,3,11.4,2.2,3.7-.8,7.3-4.8,10.3-7.1a4.18,4.18,0,0,0,1.1-1.8c3.3-10.9-1.2-16.1-3.3-17.8-3-2.5-7.8-5.6-11.7-5.9s-8.6,2.8-12.2,4.2c-4.2,1.7-4.8,13-4.8,13.2a18,18,0,0,0,3.6,8.4" class="cls-40" transform="translate(0 -0.1)"/><path d="M65.1,129.4a9.22,9.22,0,0,0,3.5,3c3.3,1.2,8,3.2,11.5,2.5s7.1-5,10-7.3a1.69,1.69,0,0,0,.3-1c1.3-5.6,2.5-10.9-4.6-16.7-2.4-1.9-6-4.4-9.1-4.5-3.9-.2-8.6,2.8-12.1,4.4a3.58,3.58,0,0,0-1.5,1.9c-2.9,6.1-2.3,12.1,2,17.7" class="cls-41" transform="translate(0 -0.1)"/><path d="M66.8,129.2a4.07,4.07,0,0,0,1.4,1.2c3.4,1.1,8.1,3.5,11.7,2.8,2.8-.6,5.9-3.3,7.6-5.6,1.5-2.1,2.3-5.6,2.6-8.2,0-.3.1-.9-.1-1.1-1.9-2.6-4.2-6.4-6.7-8.4-1.7-1.3-4.3-3.1-6.4-3.2-.1,0-11.8,4.3-12,4.7-1.2,2.6-2.4,6.4-2.1,9.3s2.3,6.3,4,8.5" class="cls-42" transform="translate(0 -0.1)"/><path d="M67.6,127.2a6.14,6.14,0,0,0,1.9,1.7c3,1.1,7.1,3.3,10.2,2.7a9.87,9.87,0,0,0,5.2-3.8c1.5-2.4,3.6-6.2,3.1-9-.6-3.3-4.7-6.4-7.1-8.7a6.89,6.89,0,0,0-3.8-1.9c-2.7-.1-19.5,5.8-9.5,19" class="cls-43" transform="translate(0 -0.1)"/><path d="M66.5,121.6a30.44,30.44,0,0,0,7.5,6.8c1.4.9,3.8,1.8,5.4,1.5a4.7,4.7,0,0,0,2.7-2.1c1.4-2.5,3.8-6.2,3.4-9,0-.1-6.8-9.1-8.4-9.2-2.3-.1-8,6.3-11,9.8-.4.5,0,1.7.4,2.2" class="cls-44" transform="translate(0 -0.1)"/><path d="M78.6,128.1a1.42,1.42,0,0,0,.6.2c.6-.1,4-9.2,4-9.3-.4-2.6-3.1-6.7-5.8-6.8-3.3-.2-8.1,4.5-8,7.8.2,3.7,6,6.3,9.2,8.1" class="cls-45" transform="translate(0 -0.1)"/><path d="M78.7,124.2c1.6-.4,2.3-3.5,2.1-5.1-.2-1.4-1.6-3.5-3-3.5-1.7-.1-4.2,2.3-4.2,4.1,0,2,3.1,5,5.1,4.5" class="cls-46" transform="translate(0 -0.1)"/><path d="M78.2,119.8a.76.76,0,0,0,.2-.5.45.45,0,0,0-.3-.3.43.43,0,0,0-.4.4c0,.1.3.2.5.4" class="cls-47" transform="translate(0 -0.1)"/></g></g></g><g class="cls-2"><g class="cls-48"><g class="cls-2"><path d="M50.8,186.9a100.59,100.59,0,0,1-39.5-41C-2.6,119.5.4,92.8.5,91.7,2.4,76.1,3.7,72.2,8.6,59.9A103.81,103.81,0,0,1,21.3,38.6c5.9-7.2,21.6-26.2,51.5-34.7a97.91,97.91,0,0,1,38.8-3,100.24,100.24,0,0,1,37,12.2A77.31,77.31,0,0,0,99.9,4c18-2.3,34.7,1.2,48.7,9.1,6.1,3.7,15.2,9.3,23.9,18.9a102.17,102.17,0,0,1,18.2,27.4,91.68,91.68,0,0,1,5.4,15.5,151.8,151.8,0,0,1,2.8,16.4c.3,2.3,1.1,10.9-1,25A99.31,99.31,0,0,1,50.8,186.9" class="cls-11" transform="translate(0 -0.1)"/><path d="M148.6,13.1c6.9,4.2,11,6.7,18.7,13.7l5.2,5.2c1.8,2.1,4.2,4.8,5.9,6.9l4.3,6.1c1.4,2.2,3.2,5.2,4.5,7.5l3.4,6.9c1,2.4,2.3,5.6,3.2,8l2.3,7.5c.6,2.5,1.4,5.9,1.8,8.5l1,8c.1,2.7.4,6.2.4,8.9l-.3,8.1c-.4,3-.8,7.1-1.3,10.1l-1.8,7.7c-.8,2.5-1.7,5.8-2.6,8.2l-2.9,7.1c-1.2,2.3-2.6,5.4-3.9,7.6l-4,6.4c-1.5,2.1-3.5,5-5.2,7l-4.8,5.5c-1.9,1.9-4.5,4.6-6.5,6.4l-5.3,4.4c-2.5,1.8-5.8,4.2-8.3,5.8l-5,2.9a89.81,89.81,0,0,1-11.3,5.3l-3.6,1.3a108.44,108.44,0,0,1-19.6,4.7l-2.6.3a22.86,22.86,0,0,1-2.5.2l-2.3.2c-.7,0-1.6.1-2.2.1l-2.2.1H96.9c-.6,0-1.5-.1-2.1-.1l-2.2-.1c-.7-.1-1.6-.1-2.2-.2L88,199c-.7-.1-1.7-.2-2.5-.3l-2.7-.4c-.9-.2-2-.4-2.9-.6l-3.3-.7-3.7-1-4.1-1.3c-1.5-.5-3.5-1.2-5-1.8l-5.1-2.2c-2.3-1.2-5.4-2.7-7.7-4l-5.7-3.5c-2.6-1.8-6-4.3-8.5-6.3l-5.4-4.8c-2-2-4.6-4.7-6.5-6.7l-4.7-5.8c-1.5-2.2-3.6-5-5-7.3l-3.8-6.6c-1.1-2.3-2.6-5.4-3.6-7.8l-2.7-7.3c-.7-2.5-1.7-5.8-2.3-8.3l-1.5-7.8C.8,110.1.4,104.1.2,99.7l.3-8.1c.3-2.6.7-6.1,1.1-8.7l1.6-7.7c.7-2.5,1.6-5.8,2.5-8.2l2.8-7.2c1.1-2.3,2.6-5.4,3.8-7.7l3.9-6.5c1.5-2.1,3.5-5,5.1-7.1L26,32.9c1.9-2,4.4-4.6,6.4-6.5L37.7,22c2.4-1.8,5.6-4.2,8.1-5.9L50.9,13A113.54,113.54,0,0,1,61.8,7.6l3.7-1.4A106.77,106.77,0,0,1,86.6,1L89.2.7A22.86,22.86,0,0,1,91.7.5L94,.3c.7,0,1.6-.1,2.2-.1L98.4.1h4.2c.6,0,1.5.1,2.1.1l2.2.1c.7.1,1.6.1,2.2.2l2.4.3c.7.1,1.7.2,2.5.3l2.7.4c.9.2,2,.4,2.9.6l3.3.7,3.7,1,4.1,1.3c1.5.5,3.5,1.2,5,1.8l5.1,2.2c2.4,1.2,5.5,2.7,7.8,4A77.31,77.31,0,0,0,99.9,4c-.1,0-.2.1-.3.1C25.9,23.2,33.7,113,95.5,149c50,29.1,115.9-9.1,99.7-74.5C193.3,67,174.9,1.2,99.9,4c18-2.4,34.7,1.1,48.7,9.1" class="cls-11" transform="translate(0 -0.1)"/><path d="M148.6,13.1h0c6.9,4.2,11,6.7,18.7,13.7l5.2,5.2c1.8,2.1,4.2,4.8,5.9,6.9l4.3,6.1c1.4,2.2,3.2,5.2,4.5,7.5l3.4,6.9c1,2.4,2.3,5.6,3.2,8l2.3,7.5c.6,2.5,1.4,5.9,1.8,8.5l1,8c.1,2.7.4,6.2.4,8.9l-.3,8.1c-.4,3-.8,7.1-1.3,10.1l-1.8,7.7c-.8,2.5-1.7,5.8-2.6,8.2l-2.9,7.1c-1.2,2.3-2.6,5.4-3.9,7.6l-4,6.4c-1.5,2.1-3.5,5-5.2,7l-4.8,5.5c-1.9,1.9-4.5,4.6-6.5,6.4l-5.3,4.4c-2.5,1.8-5.8,4.2-8.3,5.8l-5,2.9a89.81,89.81,0,0,1-11.3,5.3l-3.6,1.3a108.44,108.44,0,0,1-19.6,4.7l-2.6.3a22.86,22.86,0,0,1-2.5.2l-2.3.2c-.7,0-1.6.1-2.2.1l-2.2.1H96.9c-.6,0-1.5-.1-2.1-.1l-2.2-.1c-.7-.1-1.6-.1-2.2-.2L88,199c-.7-.1-1.7-.2-2.5-.3l-2.7-.4c-.9-.2-2-.4-2.9-.6l-3.3-.7-3.7-1-4.1-1.3c-1.5-.5-3.5-1.2-5-1.8l-5.1-2.2c-2.3-1.2-5.4-2.7-7.7-4l-5.7-3.5c-2.6-1.8-6-4.3-8.5-6.3l-5.4-4.8c-2-2-4.6-4.7-6.5-6.7l-4.7-5.8c-1.5-2.2-3.6-5-5-7.3l-3.8-6.6c-1.1-2.3-2.6-5.4-3.6-7.8l-2.7-7.3c-.7-2.5-1.7-5.8-2.3-8.3l-1.5-7.8C.8,110.1.4,104.1.2,99.7l.3-8.1c.3-2.6.7-6.1,1.1-8.7l1.6-7.7c.7-2.5,1.6-5.8,2.5-8.2l2.8-7.2c1.1-2.3,2.6-5.4,3.8-7.7l3.9-6.5c1.5-2.1,3.5-5,5.1-7.1L26,32.9c1.9-2,4.4-4.6,6.4-6.5L37.7,22c2.4-1.8,5.6-4.2,8.1-5.9L50.9,13A113.54,113.54,0,0,1,61.8,7.6l3.7-1.4A106.77,106.77,0,0,1,86.6,1L89.2.7A22.86,22.86,0,0,1,91.7.5L94,.3c.7,0,1.6-.1,2.2-.1L98.4.1h4.2c.6,0,1.5.1,2.1.1l2.2.1c.7.1,1.6.1,2.2.2l2.4.3c.7.1,1.7.2,2.5.3l2.7.4c.9.2,2,.4,2.9.6l3.3.7,3.7,1,4.1,1.3c1.5.5,3.5,1.2,5,1.8l5.1,2.2c2.4,1.2,5.5,2.7,7.8,4A71.68,71.68,0,0,0,133,6.5c-.1,0-.2-.1-.3-.1C59.6-14.3,21,57.1,55.1,115.3c38.1,65.1,126.6,62.1,141.4-4.9C205.8,68,177.4,21.3,133.1,6.5a73,73,0,0,1,15.5,6.6" class="cls-4" transform="translate(0 -0.1)"/><path d="M193.8,67.4a105.74,105.74,0,0,1,4.1,16l1,8c.1,2.7.4,6.2.4,8.9l-.3,8.1c-.4,3-.8,7.1-1.3,10.1l-1.8,7.7c-.8,2.5-1.7,5.8-2.6,8.2l-2.9,7.1c-1.2,2.3-2.6,5.4-3.9,7.6l-4,6.4c-1.5,2.1-3.5,5-5.2,7l-4.8,5.5c-1.9,1.9-4.5,4.6-6.5,6.4l-5.3,4.4c-2.5,1.8-5.8,4.2-8.3,5.8l-5,2.9a89.81,89.81,0,0,1-11.3,5.3l-3.6,1.3a108.44,108.44,0,0,1-19.6,4.7l-2.6.3a22.86,22.86,0,0,1-2.5.2l-2.3.2c-.7,0-1.6.1-2.2.1l-2.2.1H96.9c-.6,0-1.5-.1-2.1-.1l-2.2-.1c-.7-.1-1.6-.1-2.2-.2L88,199c-.7-.1-1.7-.2-2.5-.3l-2.7-.4c-.9-.2-2-.4-2.9-.6l-3.3-.7-3.7-1-4.1-1.3c-1.5-.5-3.5-1.2-5-1.8l-5.1-2.2c-2.3-1.2-5.4-2.7-7.7-4l-5.7-3.5c-2.6-1.8-6-4.3-8.5-6.3l-5.4-4.8c-2-2-4.6-4.7-6.5-6.7l-4.7-5.8c-1.5-2.2-3.6-5-5-7.3l-3.8-6.6c-1.1-2.3-2.6-5.4-3.6-7.8l-2.7-7.3c-.7-2.5-1.7-5.8-2.3-8.3l-1.5-7.8C.8,110.1.4,104.1.2,99.7l.3-8.1c.3-2.6.7-6.1,1.1-8.7l1.6-7.7c.7-2.5,1.6-5.8,2.5-8.2l2.8-7.2c1.1-2.3,2.6-5.4,3.8-7.7l3.9-6.5c1.5-2.1,3.5-5,5.1-7.1L26,32.9c1.9-2,4.4-4.6,6.4-6.5L37.7,22c2.4-1.8,5.6-4.2,8.1-5.9L50.9,13A113.54,113.54,0,0,1,61.8,7.6l3.7-1.4A106.77,106.77,0,0,1,86.6,1L89.2.7A22.86,22.86,0,0,1,91.7.5L94,.3c.7,0,1.6-.1,2.2-.1L98.4.1h4.2c.6,0,1.5.1,2.1.1l2.2.1c.7.1,1.6.1,2.2.2l2.4.3c.7.1,1.7.2,2.5.3l2.7.4c.9.2,2,.4,2.9.6l3.3.7,3.7,1,4.1,1.3c1.5.5,3.5,1.2,5,1.8l5.1,2.2c2.3,1.2,5.4,2.7,7.7,4-.6-.3-1.2-.7-1.8-1-1.8-.9-4.2-2.1-6-2.9C71.8-21,20.6,43.9,45.2,104.2c30.6,74.9,122.6,79.1,147,22.8,8.4-19.3,8.5-41.7.2-63.2.5,1.1,1,2.5,1.4,3.6" class="cls-5" transform="translate(0 -0.1)"/><path d="M148.6,13.1h0l5,3.1-6-3.6-.8-.4a7.57,7.57,0,0,1,1.8.9" class="cls-5" transform="translate(0 -0.1)"/><path d="M197.8,83.4a99.53,99.53,0,0,1,1.4,16.8l-.3,8.1c-.4,3-.8,7.1-1.3,10.1l-1.8,7.7c-.8,2.5-1.7,5.8-2.6,8.2l-2.9,7.1c-1.2,2.3-2.6,5.4-3.9,7.6l-4,6.4c-1.5,2.1-3.5,5-5.2,7l-4.8,5.5c-1.9,1.9-4.5,4.6-6.5,6.4l-5.3,4.4c-2.5,1.8-5.8,4.2-8.3,5.8l-5,2.9a89.81,89.81,0,0,1-11.3,5.3l-3.6,1.3a108.44,108.44,0,0,1-19.6,4.7l-2.6.3a22.86,22.86,0,0,1-2.5.2l-2.3.2c-.7,0-1.6.1-2.2.1l-2.2.1H96.8c-.6,0-1.5-.1-2.1-.1l-2.2-.1c-.7-.1-1.6-.1-2.2-.2l-2.4-.3c-.7-.1-1.7-.2-2.5-.3l-2.7-.4c-.9-.2-2-.4-2.9-.6l-3.3-.7-3.7-1-4.1-1.3c-1.5-.5-3.5-1.2-5-1.8l-5.1-2.2c-2.3-1.2-5.4-2.7-7.7-4l-5.7-3.5c-2.6-1.8-6-4.3-8.5-6.3L31.3,172c-2-2-4.6-4.7-6.5-6.7l-4.7-5.8c-1.5-2.2-3.6-5-5-7.3l-3.8-6.6c-1.1-2.3-2.6-5.4-3.6-7.8L5,130.5c-.7-2.5-1.7-5.8-2.3-8.3l-1.5-7.8C.7,110,.3,104,.1,99.6l.3-8.1c.3-2.6.7-6.1,1.1-8.7l1.6-7.7c.7-2.5,1.6-5.8,2.5-8.2l2.8-7.2c1.1-2.3,2.6-5.4,3.8-7.7l3.9-6.5c1.5-2.1,3.5-5,5.1-7.1l4.7-5.6c1.9-2,4.4-4.6,6.4-6.5L37.7,22c2.4-1.8,5.6-4.2,8.1-5.9L50.9,13A113.54,113.54,0,0,1,61.8,7.6l3.7-1.4A106.77,106.77,0,0,1,86.6,1L89.2.7A22.86,22.86,0,0,1,91.7.5L94,.3c.7,0,1.6-.1,2.2-.1L98.4.1h4.2c.6,0,1.5.1,2.1.1l2.2.1c.7.1,1.6.1,2.2.2l2.4.3c.7.1,1.7.2,2.5.3l2.7.4c.9.2,2,.4,2.9.6l3.3.7,3.7,1,4.1,1.3,2.4.8-5.2-1.7C59.4-15.1,10.8,52.2,46.7,116.9c39.4,71.2,129.8,64.9,148.5,6a83.32,83.32,0,0,0,2.6-40v.5" class="cls-6" transform="translate(0 -0.1)"/><path d="M199.2,100.2a100.66,100.66,0,0,1-1.7,18.2l-1.8,7.7c-.8,2.5-1.7,5.8-2.6,8.2l-2.9,7.1c-1.2,2.3-2.6,5.4-3.9,7.6l-4,6.4c-1.5,2.1-3.5,5-5.2,7l-4.8,5.5c-1.9,1.9-4.5,4.6-6.5,6.4l-5.3,4.4c-2.5,1.8-5.8,4.2-8.3,5.8l-5,2.9a89.81,89.81,0,0,1-11.3,5.3l-3.6,1.3a108.44,108.44,0,0,1-19.6,4.7l-2.6.3a22.86,22.86,0,0,1-2.5.2l-2.3.2c-.7,0-1.6.1-2.2.1l-2.2.1H96.7c-.6,0-1.5-.1-2.1-.1l-2.2-.1c-.7-.1-1.6-.1-2.2-.2l-2.4-.3c-.7-.1-1.7-.2-2.5-.3l-2.7-.4c-.9-.2-2-.4-2.9-.6l-3.3-.7-3.7-1-4.1-1.3c-1.5-.5-3.5-1.2-5-1.8l-5.1-2.2c-2.3-1.2-5.4-2.7-7.7-4l-5.7-3.5c-2.6-1.8-6-4.3-8.5-6.3L31.2,172c-2-2-4.6-4.7-6.5-6.7L20,159.5c-1.5-2.2-3.6-5-5-7.3l-3.8-6.6c-1.1-2.3-2.6-5.4-3.6-7.8l-2.7-7.3c-.7-2.5-1.7-5.8-2.3-8.3l-1.5-7.8C.6,110,.2,104,0,99.6l.3-8.1c.3-2.6.7-6.1,1.1-8.7L3,75.1c.7-2.5,1.6-5.8,2.5-8.2l2.8-7.2c1.1-2.3,2.6-5.4,3.8-7.7L16,45.5c1.5-2.1,3.5-5,5.1-7.1l4.7-5.6c1.9-2,4.4-4.6,6.4-6.5L37.7,22c2.4-1.8,5.6-4.2,8.1-5.9L50.9,13A113.54,113.54,0,0,1,61.8,7.6l3.7-1.4A106.77,106.77,0,0,1,86.6,1L89.2.7A22.86,22.86,0,0,1,91.7.5L94,.3c.7,0,1.6-.1,2.2-.1L98.4.1h4.2c.6,0,1.5.1,2.1.1l2.2.1c.7.1,1.6.1,2.2.2l2.4.3c.7.1,1.7.2,2.5.3l2.7.4.7.1h-.7C38.5-10.6,7.6,76.3,51.7,133.2c47.6,61.4,138.1,48.1,146.7-21.6a87.26,87.26,0,0,0,.8-12.2v.8" class="cls-7" transform="translate(0 -0.1)"/><path d="M197.5,118.4a113.69,113.69,0,0,1-4.3,15.9l-2.9,7.1c-1.2,2.3-2.6,5.4-3.9,7.6l-4,6.4c-1.5,2.1-3.5,5-5.2,7l-4.8,5.5c-1.9,1.9-4.5,4.6-6.5,6.4l-5.3,4.4c-2.5,1.8-5.8,4.2-8.3,5.8l-5,2.9a89.81,89.81,0,0,1-11.3,5.3l-3.6,1.3a108.44,108.44,0,0,1-19.6,4.7l-2.6.3a22.86,22.86,0,0,1-2.5.2l-2.3.2c-.7,0-1.6.1-2.2.1l-2.2.1H96.8c-.6,0-1.5-.1-2.1-.1l-2.2-.1c-.7-.1-1.6-.1-2.2-.2l-2.4-.3c-.7-.1-1.7-.2-2.5-.3l-2.7-.4c-.9-.2-2-.4-2.9-.6l-3.3-.7-3.7-1-4.1-1.3c-1.5-.5-3.5-1.2-5-1.8l-5.1-2.2c-2.3-1.2-5.4-2.7-7.7-4l-5.7-3.5c-2.6-1.8-6-4.3-8.5-6.3L31.3,172c-2-2-4.6-4.7-6.5-6.7l-4.7-5.8c-1.5-2.2-3.6-5-5-7.3l-3.8-6.6c-1.1-2.3-2.6-5.4-3.6-7.8L5,130.5c-.7-2.5-1.7-5.8-2.3-8.3l-1.5-7.8C.7,110,.3,104,.1,99.6l.3-8.1c.3-2.6.7-6.1,1.1-8.7l1.6-7.7c.7-2.5,1.6-5.8,2.5-8.2l2.8-7.2c1.1-2.3,2.6-5.4,3.8-7.7l3.9-6.5c1.5-2.1,3.5-5,5.1-7.1l4.7-5.6c1.9-2,4.4-4.6,6.4-6.5L37.7,22c2.4-1.8,5.6-4.2,8.1-5.9L50.9,13A113.54,113.54,0,0,1,61.8,7.6l3.7-1.4A106.77,106.77,0,0,1,86.6,1L89.2.7A22.86,22.86,0,0,1,91.7.5L94,.3c.7,0,1.6-.1,2.2-.1L98.4.1h2.3C26.7.5.9,90,58.1,147.4c46.6,46.9,127,37.7,140.1-33-.2,1.2-.5,2.8-.7,4" class="cls-8" transform="translate(0 -0.1)"/><path d="M193.2,134.3a101,101,0,0,1-6.8,14.8l-4,6.4c-1.5,2.1-3.5,5-5.2,7l-4.8,5.5c-1.9,1.9-4.5,4.6-6.5,6.4l-5.3,4.4c-2.5,1.8-5.8,4.2-8.3,5.8l-5,2.9a89.81,89.81,0,0,1-11.3,5.3l-3.6,1.3a108.44,108.44,0,0,1-19.6,4.7l-2.6.3a22.86,22.86,0,0,1-2.5.2l-2.3.2c-.7,0-1.6.1-2.2.1l-2.2.1H96.8c-.6,0-1.5-.1-2.1-.1l-2.2-.1c-.7-.1-1.6-.1-2.2-.2l-2.4-.3c-.7-.1-1.7-.2-2.5-.3l-2.7-.4c-.9-.2-2-.4-2.9-.6l-3.3-.7-3.7-1-4.1-1.3c-1.5-.5-3.5-1.2-5-1.8l-5.1-2.2c-2.3-1.2-5.4-2.7-7.7-4l-5.7-3.5c-2.6-1.8-6-4.3-8.5-6.3l-5.4-4.8c-2-2-4.6-4.7-6.5-6.7l-4.7-5.8c-1.5-2.2-3.6-5-5-7.3l-3.8-6.6c-1.1-2.3-2.6-5.4-3.6-7.8L5,130.6c-.7-2.5-1.7-5.8-2.3-8.3l-1.5-7.8C.7,110.1.3,104.1.1,99.7l.3-8.1c.3-2.6.7-6.1,1.1-8.7l1.6-7.7c.7-2.5,1.6-5.8,2.5-8.2l2.8-7.2c1.1-2.3,2.6-5.4,3.8-7.7l3.9-6.5c1.5-2.1,3.5-5,5.1-7.1l4.7-5.6c1.9-2,4.4-4.6,6.4-6.5L37.7,22c2.4-1.8,5.6-4.2,8.1-5.9L50.9,13A113.54,113.54,0,0,1,61.8,7.6l3.7-1.4A102.07,102.07,0,0,1,86.1,1l-1.5.2C8.6,14.4-.9,114.2,69.2,162.9c49.1,34.2,109,18.4,125.5-33.1-.5,1.4-1.1,3.2-1.5,4.5" class="cls-9" transform="translate(0 -0.1)"/><path d="M186.3,149.1a98.91,98.91,0,0,1-9.1,13.5l-4.8,5.5c-1.9,1.9-4.5,4.6-6.5,6.4l-5.3,4.4c-2.5,1.8-5.8,4.2-8.3,5.8l-5,2.9a89.81,89.81,0,0,1-11.3,5.3l-3.6,1.3a108.44,108.44,0,0,1-19.6,4.7l-2.6.3a22.86,22.86,0,0,1-2.5.2l-2.3.2c-.7,0-1.6.1-2.2.1l-2.2.1H96.8c-.6,0-1.5-.1-2.1-.1l-2.2-.1c-.7-.1-1.6-.1-2.2-.2l-2.4-.3c-.7-.1-1.7-.2-2.5-.3l-2.7-.4c-.9-.2-2-.4-2.9-.6l-3.3-.7-3.7-1-4.1-1.3c-1.5-.5-3.5-1.2-5-1.8l-5.1-2.2c-2.3-1.2-5.4-2.7-7.7-4l-5.7-3.5c-2.6-1.8-6-4.3-8.5-6.3l-5.4-4.8c-2-2-4.6-4.7-6.5-6.7l-4.7-5.8c-1.5-2.2-3.6-5-5-7.3l-3.8-6.6c-1.1-2.3-2.6-5.4-3.6-7.8L5,130.7c-.7-2.5-1.7-5.8-2.3-8.3l-1.5-7.8C.7,110.2.3,104.2.1,99.8l.3-8.1c.3-2.6.7-6.1,1.1-8.7l1.6-7.7c.7-2.5,1.6-5.8,2.5-8.2l2.8-7.2c1.1-2.3,2.6-5.4,3.8-7.7l3.9-6.5c1.5-2.1,3.5-5,5.1-7.1L25.9,33c1.9-2,4.4-4.6,6.4-6.5L37.7,22c2.4-1.8,5.6-4.2,8.1-5.9L50.9,13A113.54,113.54,0,0,1,61.8,7.6l3.7-1.4c1.7-.6,3.9-1.3,5.6-1.9l-.3.1C-2.2,27.5.6,135.2,75.1,173.9c51.9,27,94.6,5.1,112.2-26.6-.3.5-.6,1.2-1,1.8" class="cls-10" transform="translate(0 -0.1)"/><path d="M143.8,11.8c62.3,29.6,71.3,116.6,14.4,139C98.4,174.3,29.8,102.7,54.7,43,70.8,4.6,112.6-3,143.8,11.8" class="cls-12" transform="translate(0 -0.1)"/><path d="M152.3,17c59.9,36.8,57,121.6-4.7,133.5C82.5,163.1,27.3,81.9,65.5,29.8,87.5,0,125.8.8,152.3,17" class="cls-13" transform="translate(0 -0.1)"/><path d="M160,23.1C214.1,65,199.1,137,148.2,147,91.7,158.1,31.8,87.5,68,31.5c16.2-25,55.9-35.3,92-8.4" class="cls-14" transform="translate(0 -0.1)"/><path d="M166.9,30c49.1,47.4,22.2,114.8-30.7,114.8C74.4,144.7,35.8,66.4,77.1,25.1c26.1-26,66.1-17.9,89.8,4.9" class="cls-15" transform="translate(0 -0.1)"/><path d="M166.7,31.1C211.2,73,192.6,141,136.5,141.3c-60.2.4-96.1-74.2-55.8-115.6C102.2,3.6,140,6,166.7,31.1" class="cls-16" transform="translate(0 -0.1)"/><path d="M172.3,38.8c36.4,44.9,10.7,103.8-43,98.5C67.5,131.2,48.2,54.4,87.9,23.4c27.2-21.3,65-8.6,84.4,15.4" class="cls-17" transform="translate(0 -0.1)"/><path d="M171.5,39.9c36.2,45,6.3,103.7-47.9,93.7C70,123.8,50.8,53.5,93.4,23,116,6.9,151,14.4,171.5,39.9" class="cls-18" transform="translate(0 -0.1)"/><path d="M175.8,48.4c28.5,47.3-7.8,90.8-52,82.3C65.2,119.5,60.3,51.2,93.6,26.8c31.3-23,67.8-2.2,82.2,21.6" class="cls-19" transform="translate(0 -0.1)"/><path d="M174.5,49.5c26.5,44.8-8.6,86.1-50.7,78.2-58-10.8-59.6-77.9-25-100.8,26.4-17.4,61-2.1,75.7,22.6" class="cls-20" transform="translate(0 -0.1)"/><path d="M172.8,50.7c26.2,45.4-13,84.7-56.4,72.7-48.7-13.5-49.3-74.7-11.7-96.3,24.1-13.8,55.3,1.3,68.1,23.6" class="cls-21" transform="translate(0 -0.1)"/><path d="M174.8,60c14.9,40-24.9,76.5-64.5,59.2-43.3-19-36.6-76.1.8-91.4,23.5-9.6,53.9,5.8,63.7,32.2" class="cls-22" transform="translate(0 -0.1)"/><path d="M172.4,61.2c13.2,38.5-24.5,72.5-62.2,55.9-41.6-18.3-34.5-70.6,1.8-86,25.1-10.6,52.6,7.1,60.4,30.1" class="cls-23" transform="translate(0 -0.1)"/><path d="M169.7,62.4c12.6,38.2-27.6,67-59.4,52.9C71.5,98.1,78.9,47.4,113,34.2c24.8-9.5,49.8,7.2,56.7,28.2" class="cls-24" transform="translate(0 -0.1)"/><path d="M166.7,63.5c11.9,36.2-26.3,63.4-56.5,50-33.5-14.8-31.3-62.6,3.5-76.3,16.4-6.4,44.5.5,53,26.3" class="cls-25" transform="translate(0 -0.1)"/><path d="M165.5,73.4c1.9,28.5-18.8,37-28.8,41-8.1,3.3-19.2-.3-26.6-2.7-3.1-1-13.1-10.3-13.2-10.3C78.8,83.6,85.8,43.2,122,38.5c23.1-3,42.3,16.3,43.5,34.9" class="cls-26" transform="translate(0 -0.1)"/><path d="M162.7,74.3c2.5,20.1-13.5,32.1-13.7,32.2-10.3,6.6-10.3,6.6-25.4,7.5-.1,0-11.9-2.8-15.2-5.1C70.7,81.6,95,48.5,115,42.4c19.1-5.8,44.6,7.1,47.7,31.9" class="cls-27" transform="translate(0 -0.1)"/><path d="M160.4,74.9c2.8,25.8-27.7,51.3-56.3,28.7C74.7,80.3,96.9,43.5,124,43.5c13.8.1,34.2,11,36.4,31.4" class="cls-28" transform="translate(0 -0.1)"/><path d="M158,75.5c3.1,34.5-36.2,46-57,24.2a31.51,31.51,0,0,1,23.8-53.6c19.7.4,32.2,17.7,33.2,29.4" class="cls-29" transform="translate(0 -0.1)"/><path d="M155.6,76c3.1,33.6-35.6,41.4-52.7,23.6-21.3-22.2-3-53.7,22.6-51.6,20.7,1.7,29.3,20,30.1,28" class="cls-30" transform="translate(0 -0.1)"/><path d="M153.7,76.4c2.5,17.1-8.1,23.8-17.4,29.6-.1.1-11.8,5.4-26.2-2.2a30.94,30.94,0,0,1-15-31.3c.6-5.2,7.8-19.1,21.6-22.3,11.3-2.5,34,5.4,37,26.2" class="cls-31" transform="translate(0 -0.1)"/><path d="M152.1,86c0,.1-3.8,8.7-5.2,10.2-2.6,3.1-7.4,6-10.7,8.3s-9,1.8-12.9,2.1c-1.1.1-16.7-2.2-24.2-16.2-9.3-17.5,4.5-42,27.5-38.7C142.8,54,155.7,71.4,152.1,86" class="cls-32" transform="translate(0 -0.1)"/><path d="M150.2,86.4c-4.6,17.2-20.3,18.5-27,19-4.2.3-9.7-2.2-13.2-4.5-3-2-9.4-10.4-9.5-10.4C91,73.4,104.4,50,127.1,53.7c1.4.2,11.6,5.1,11.7,5.1,2.8,2,4.2,3,9,9.8,4.5,6.3,2.5,17.7,2.4,17.8" class="cls-33" transform="translate(0 -0.1)"/><path d="M148.4,86.7c-2.2,7.9-9.4,12.8-12.5,15s-8.9,2.2-12.8,2.5c-4.1.3-9.5-2.4-13-4.6a28.6,28.6,0,0,1-8.2-9.1c-2.4-4.1-6.9-14.8,1.6-26.4,8.8-12,23.9-8.7,24.1-8.7a36.61,36.61,0,0,1,11.7,5.8c.5.4,6.7,7.6,6.7,7.7,5.2,7.6,2.5,17.4,2.4,17.8" class="cls-34" transform="translate(0 -0.1)"/><path d="M146.5,87a30.44,30.44,0,0,1-10.7,13.2c-3.2,2.2-8.8,2.4-12.7,2.7-.3,0-9.8-3-13.2-5.1a24.25,24.25,0,0,1-6.6-7.3c-5.2-8.8-4.5-17.7,2-26.5,4.1-5.5,14.1-9.2,22.8-7,.2,0,25,8.2,18.4,30" class="cls-35" transform="translate(0 -0.1)"/><path d="M145.4,82.4c-.2,1.5.2,3.6-.6,4.9-1.8,3.4-4.7,7.8-7.7,10.3-1.5,1.3-1.9,1.6-14.2,4-.1,0-12.6-1.9-18.3-11.2-7.9-12.9-.5-22.8,2.2-26.5,2.1-2.8,11-6,11.1-6,3.1-.8,7.4-.1,10.5.7,7.8,2.1,14,10.7,14.1,10.8,3.7,5.1,3.3,9.5,2.9,13" class="cls-36" transform="translate(0 -0.1)"/><path d="M143.2,87.5c-1.4,3.4-4.5,7.7-7.7,9.6a115.41,115.41,0,0,1-12.6,3.2c-.1,0-12.4-2.9-16.8-10-7.8-12.7-.6-22.3,2.2-25.9.2-.3,9.5-5.1,10-5.2,3.1-.6,7.6.1,10.7.9,1.9.7,20.8,11.6,14.2,27.4" class="cls-37" transform="translate(0 -0.1)"/><path d="M141.4,87.8c-1.2,2.7-3.6,6.1-6.1,7.7-.6.3-12.1,3.7-12.4,3.7-.8-.1-13.1-6.3-13.1-6.3-4.2-3.9-5.7-11.3-5.8-11.4a18.28,18.28,0,0,1,4.4-14.8c6.9-5,10.1-5.9,10.1-5.9s10,.6,11.8,1.7c2.9,2,7.6,4.3,9,7.5,1.1,2.5,3.1,5.8,3.4,8.5a19.88,19.88,0,0,1-1.3,9.3" class="cls-38" transform="translate(0 -0.1)"/><path d="M139.7,88c-.9,2-2.7,4.6-4.6,5.7-3.4,1.9-8.5,4.7-12.4,4a30.52,30.52,0,0,1-13.1-6.5c-1.9-1.7-4.4-9.7-4.4-9.7s-.2-10.3,3.3-12.8c4.2-3,8.7-6.2,10.2-6.5.6-.1,10.4,1.3,11.1,1.7a25.5,25.5,0,0,1,7.8,6.4c1.4,1.8,2.1,4.9,3,7,1.6,3.8-.9,10.6-.9,10.7" class="cls-39" transform="translate(0 -0.1)"/><path d="M138,88.2a9.43,9.43,0,0,1-3,3.8c-3.4,1.8-8.4,5-12.2,4.2a27.63,27.63,0,0,1-11.7-5.9c-2.5-2.3-4.4-8.9-4.4-8.9s-.3-7.2,2.1-10.7c2.1-3.1,6.6-6.4,10.3-7.2,3.4-.7,8.1.9,11.3,2.2a15.57,15.57,0,0,1,5.6,4.6,19.63,19.63,0,0,1,3.8,8.6,21.44,21.44,0,0,1-1.8,9.3" class="cls-40" transform="translate(0 -0.1)"/><path d="M136.2,88.4a4.71,4.71,0,0,1-1.5,1.9c-3.5,1.6-8.3,4.7-12.1,4.4-3-.2-6.6-2.7-9.1-4.5a18.08,18.08,0,0,1-4-5.1c-3.5-5.8-.3-12.6-.3-12.6,2.2-3,6.4-6.6,10-7.3,3.4-.7,8.2,1.3,11.5,2.5a9.37,9.37,0,0,1,3.6,3c1.6,2.3,3.6,5.7,3.9,8.5a18.7,18.7,0,0,1-2,9.2" class="cls-41" transform="translate(0 -0.1)"/><path d="M134.4,88.6c-2.5,2.9-8.1,4.9-12,4.7-2.2-.1-4.8-1.8-6.4-3.2a30.29,30.29,0,0,1-6.7-8.4c-.6-1.1,2.5-9.2,2.6-9.3,1.6-2.3,4.8-5.1,7.6-5.6,3.5-.7,8.2,1.8,11.7,2.9a3.23,3.23,0,0,1,1.4,1.2c1.6,2.3,3.7,5.7,4,8.5a16.93,16.93,0,0,1-2.2,9.2" class="cls-42" transform="translate(0 -0.1)"/><path d="M133.9,84.6c-3.1,5.7-11.5,7.2-11.6,7.2a6.89,6.89,0,0,1-3.8-1.9c-2.4-2.4-6.6-5.4-7.1-8.7-.5-2.8,1.6-6.6,3.1-9a10,10,0,0,1,5.2-3.9c3.1-.6,7.2,1.6,10.2,2.7a7.35,7.35,0,0,1,1.9,1.6c2.4,2.9,3.8,8.8,2.1,12" class="cls-43" transform="translate(0 -0.1)"/><path d="M133.2,80.7c-1.8,3.3-6,6.4-8.9,8.9a3.49,3.49,0,0,1-2.2.8c-1.7-.1-8.4-9.1-8.4-9.2-.5-2.8,2-6.5,3.4-9a4.61,4.61,0,0,1,2.8-2.1,7.46,7.46,0,0,1,5.4,1.5,58.9,58.9,0,0,1,7.4,6.7,2.16,2.16,0,0,1,.5,2.4" class="cls-44" transform="translate(0 -0.1)"/><path d="M122,87.8c-2.7-.2-5.4-4.2-5.8-6.8,0-.1,3.4-9.2,4-9.3a1.07,1.07,0,0,1,.6.2c2.8,2.4,9.1,4.4,9.2,8.1.2,3.4-4.7,8-8,7.8" class="cls-45" transform="translate(0 -0.1)"/><path d="M121.6,84.4c-1.4-.1-2.8-2.2-3-3.6-.3-1.6.5-4.7,2.1-5.1,2-.5,5.2,2.5,5.2,4.6,0,1.8-2.5,4.2-4.3,4.1" class="cls-46" transform="translate(0 -0.1)"/><path d="M121.3,81.1a.45.45,0,0,1-.3-.3c0-.2,0-.5.2-.5a.64.64,0,0,1,.5.5.45.45,0,0,1-.4.3" class="cls-47" transform="translate(0 -0.1)"/></g></g></g></g></g></g></svg>